G04*
G04 #@! TF.GenerationSoftware,Altium Limited,Altium Designer,24.10.1 (45)*
G04*
G04 Layer_Color=8421504*
%FSLAX44Y44*%
%MOMM*%
G71*
G04*
G04 #@! TF.SameCoordinates,5747CF6B-E7E8-4C91-AA59-05DF990D4A04*
G04*
G04*
G04 #@! TF.FilePolarity,Positive*
G04*
G01*
G75*
%ADD17R,1.9000X1.7000*%
%ADD18R,1.9000X1.7000*%
%ADD19R,1.3500X2.1000*%
%ADD20R,0.9121X0.8587*%
%ADD21R,0.6654X0.5725*%
%ADD22R,3.4500X1.8000*%
%ADD23R,3.2000X1.2500*%
%ADD24R,0.9500X1.2500*%
%ADD25R,0.6000X1.2000*%
%ADD26R,1.5562X1.5046*%
%ADD27R,1.4500X0.9500*%
%ADD28R,0.5000X1.0750*%
%ADD29R,1.4549X1.5562*%
%ADD30R,1.3500X0.4000*%
%ADD31R,1.9000X2.9000*%
%ADD32R,1.4000X0.4500*%
G04:AMPARAMS|DCode=33|XSize=0.55mm|YSize=1.47mm|CornerRadius=0.0688mm|HoleSize=0mm|Usage=FLASHONLY|Rotation=270.000|XOffset=0mm|YOffset=0mm|HoleType=Round|Shape=RoundedRectangle|*
%AMROUNDEDRECTD33*
21,1,0.5500,1.3325,0,0,270.0*
21,1,0.4125,1.4700,0,0,270.0*
1,1,0.1375,-0.6663,-0.2063*
1,1,0.1375,-0.6663,0.2063*
1,1,0.1375,0.6663,0.2063*
1,1,0.1375,0.6663,-0.2063*
%
%ADD33ROUNDEDRECTD33*%
G04:AMPARAMS|DCode=34|XSize=1.47mm|YSize=0.55mm|CornerRadius=0.0688mm|HoleSize=0mm|Usage=FLASHONLY|Rotation=270.000|XOffset=0mm|YOffset=0mm|HoleType=Round|Shape=RoundedRectangle|*
%AMROUNDEDRECTD34*
21,1,1.4700,0.4125,0,0,270.0*
21,1,1.3325,0.5500,0,0,270.0*
1,1,0.1375,-0.2063,-0.6663*
1,1,0.1375,-0.2063,0.6663*
1,1,0.1375,0.2063,0.6663*
1,1,0.1375,0.2063,-0.6663*
%
%ADD34ROUNDEDRECTD34*%
D17*
X281500Y936000D02*
D03*
D18*
X281500Y853000D02*
D03*
D19*
X312751Y927249D02*
D03*
Y861749D02*
D03*
D20*
X397400Y979333D02*
D03*
Y994867D02*
D03*
X380700D02*
D03*
Y979333D02*
D03*
D21*
X588264Y899300D02*
D03*
X596336D02*
D03*
X567364Y899400D02*
D03*
X575436D02*
D03*
X746164Y1003900D02*
D03*
X754236D02*
D03*
X720864Y1002700D02*
D03*
X728936D02*
D03*
D22*
X357600Y1132100D02*
D03*
X298600D02*
D03*
X299100Y1054700D02*
D03*
X358100D02*
D03*
D23*
X423900Y1093500D02*
D03*
D24*
X400900Y1161500D02*
D03*
X423900D02*
D03*
X446900D02*
D03*
D25*
X442100Y1036300D02*
D03*
X461100D02*
D03*
X451600Y1058300D02*
D03*
X418300Y1059100D02*
D03*
X408800D02*
D03*
X399300D02*
D03*
Y1034100D02*
D03*
X418300D02*
D03*
D26*
X352500Y1003308D02*
D03*
Y985292D02*
D03*
X327150Y1003308D02*
D03*
Y985292D02*
D03*
X301800Y985292D02*
D03*
Y1003308D02*
D03*
X493800Y827908D02*
D03*
Y809892D02*
D03*
X536100Y1045592D02*
D03*
Y1063608D02*
D03*
X506500Y1045900D02*
D03*
Y1063916D02*
D03*
X625000Y796508D02*
D03*
Y778492D02*
D03*
D27*
X324600Y808500D02*
D03*
Y828500D02*
D03*
X348700Y807600D02*
D03*
Y827600D02*
D03*
D28*
X335200Y875200D02*
D03*
Y852200D02*
D03*
Y896500D02*
D03*
Y919500D02*
D03*
D29*
X330587Y941600D02*
D03*
X349100D02*
D03*
D30*
X309500Y881500D02*
D03*
Y888000D02*
D03*
Y894500D02*
D03*
Y901000D02*
D03*
Y907500D02*
D03*
D31*
X281500Y894500D02*
D03*
D32*
X424800Y997050D02*
D03*
Y990550D02*
D03*
Y984050D02*
D03*
Y977550D02*
D03*
X468800D02*
D03*
Y984050D02*
D03*
Y990550D02*
D03*
Y997050D02*
D03*
D33*
X518100Y846100D02*
D03*
Y838100D02*
D03*
Y830100D02*
D03*
Y822100D02*
D03*
Y814100D02*
D03*
Y806100D02*
D03*
Y798100D02*
D03*
Y790100D02*
D03*
X601500D02*
D03*
Y798100D02*
D03*
Y806100D02*
D03*
Y814100D02*
D03*
Y822100D02*
D03*
Y830100D02*
D03*
Y838100D02*
D03*
Y846100D02*
D03*
D34*
X587800Y859800D02*
D03*
X579800D02*
D03*
X571800D02*
D03*
X563800D02*
D03*
X555800D02*
D03*
X547800D02*
D03*
X539800D02*
D03*
X531800D02*
D03*
Y776400D02*
D03*
X539800D02*
D03*
X547800D02*
D03*
X555800D02*
D03*
X563800D02*
D03*
X571800D02*
D03*
X579800D02*
D03*
X587800D02*
D03*
M02*
