G04*
G04 #@! TF.GenerationSoftware,Altium Limited,Altium Designer,24.10.1 (45)*
G04*
G04 Layer_Color=32768*
%FSLAX44Y44*%
%MOMM*%
G71*
G04*
G04 #@! TF.SameCoordinates,5747CF6B-E7E8-4C91-AA59-05DF990D4A04*
G04*
G04*
G04 #@! TF.FilePolarity,Positive*
G04*
G01*
G75*
%ADD10C,0.1000*%
%ADD11C,0.2000*%
%ADD88C,0.0500*%
D10*
X489800Y1130300D02*
G03*
X548800Y1130300I29500J0D01*
G01*
D02*
G03*
X489800Y1130300I-29500J0D01*
G01*
X399400Y832500D02*
G03*
X399400Y891500I0J29500D01*
G01*
D02*
G03*
X399400Y832500I0J-29500D01*
G01*
X466900D02*
G03*
X466900Y891500I0J29500D01*
G01*
D02*
G03*
X466900Y832500I0J-29500D01*
G01*
X295100Y1099100D02*
X344600D01*
X361100Y1115600D01*
Y1148600D01*
X344600Y1165100D02*
X361100Y1148600D01*
X295100Y1099100D02*
Y1165100D01*
X344600D01*
X332600Y1177950D02*
X370650D01*
X332600D02*
Y1195150D01*
X370650D01*
Y1177950D02*
Y1195150D01*
X362050Y1177950D02*
X370650Y1186550D01*
X405130D01*
X298130D02*
X332610D01*
X433400Y1145000D02*
X456400Y1122000D01*
X391400Y1145000D02*
X456400D01*
X391400Y1110000D02*
Y1145000D01*
Y1110000D02*
X456400D01*
Y1145000D01*
X437000Y1040800D02*
Y1053800D01*
X466200D01*
Y1040800D02*
Y1053800D01*
X437000Y1040800D02*
X466200D01*
X437000Y1050300D02*
X446500Y1040800D01*
X423300Y1038600D02*
Y1054600D01*
X394300Y1038600D02*
X423300D01*
X394300D02*
Y1054600D01*
X423300D01*
X413800D02*
X423300Y1045100D01*
X417050Y930850D02*
X450550D01*
X417050D02*
Y949350D01*
X450550D01*
Y930850D02*
Y949350D01*
Y940100D02*
X487800D01*
X379800D02*
X417050D01*
Y901250D02*
X450550D01*
X417050D02*
Y919750D01*
X450550D01*
Y901250D02*
Y919750D01*
Y910500D02*
X487800D01*
X379800D02*
X417050D01*
X303600Y670900D02*
Y814900D01*
X267600D02*
X303600D01*
X267600Y670900D02*
Y814900D01*
Y670900D02*
X303600D01*
X333650Y700850D02*
Y734350D01*
X352150D01*
Y700850D02*
Y734350D01*
X333650Y700850D02*
X352150D01*
X342900Y663600D02*
Y700850D01*
Y734350D02*
Y771600D01*
X380025Y700850D02*
Y734350D01*
X361525Y700850D02*
X380025D01*
X361525D02*
Y734350D01*
X380025D01*
X370775D02*
Y771600D01*
Y663600D02*
Y700850D01*
X390700Y698580D02*
Y736630D01*
X407900D01*
Y698580D02*
Y736630D01*
X390700Y698580D02*
X407900D01*
X390700Y707180D02*
X399300Y698580D01*
Y664100D02*
Y698580D01*
Y736620D02*
Y771100D01*
X513950Y909100D02*
Y974100D01*
Y909100D02*
X642450D01*
Y974100D01*
X513950D02*
X642450D01*
X996290Y877420D02*
Y959980D01*
X648310Y877420D02*
X996290D01*
X648310D02*
Y959980D01*
X996290D01*
X983590D02*
X996290Y947280D01*
X642650Y1008700D02*
Y1073700D01*
Y1008700D02*
X771150D01*
Y1073700D01*
X642650D02*
X771150D01*
X820250Y1035050D02*
X853750D01*
Y1016550D02*
Y1035050D01*
X820250Y1016550D02*
X853750D01*
X820250D02*
Y1035050D01*
X783000Y1025800D02*
X820250D01*
X853750D02*
X891000D01*
X820950Y1068950D02*
X854450D01*
Y1050450D02*
Y1068950D01*
X820950Y1050450D02*
X854450D01*
X820950D02*
Y1068950D01*
X783700Y1059700D02*
X820950D01*
X854450D02*
X891700D01*
X954870Y1016550D02*
X992920D01*
X954870D02*
Y1033750D01*
X992920D01*
Y1016550D02*
Y1033750D01*
X984320Y1016550D02*
X992920Y1025150D01*
X1027400D01*
X920400D02*
X954880D01*
X957150Y1068950D02*
X990650D01*
Y1050450D02*
Y1068950D01*
X957150Y1050450D02*
X990650D01*
X957150D02*
Y1068950D01*
X919900Y1059700D02*
X957150D01*
X990650D02*
X1027900D01*
X869940Y1199520D02*
X1073140D01*
X869940Y1163920D02*
Y1199520D01*
Y1163920D02*
X1073140D01*
Y1199520D01*
X644305Y1163920D02*
X847505D01*
Y1199520D01*
X644305D02*
X847505D01*
X644305Y1163920D02*
Y1199520D01*
X295600Y1087700D02*
X345100D01*
X295600Y1021700D02*
Y1087700D01*
X345100D02*
X361600Y1071200D01*
Y1038200D02*
Y1071200D01*
X345100Y1021700D02*
X361600Y1038200D01*
X295600Y1021700D02*
X345100D01*
X431800Y1002300D02*
X461800D01*
Y972300D02*
Y1002300D01*
X431800Y972300D02*
X461800D01*
X431800D02*
Y1002300D01*
Y995800D02*
X438300Y1002300D01*
X441100Y1185900D02*
X478350D01*
X511850D02*
X549100D01*
X511850Y1176650D02*
Y1195150D01*
X478350D02*
X511850D01*
X478350Y1176650D02*
Y1195150D01*
Y1176650D02*
X511850D01*
D11*
X601162Y894938D02*
Y903662D01*
X583438D02*
X601162D01*
X583438Y894938D02*
Y903662D01*
Y894938D02*
X601162D01*
X580262Y895038D02*
Y903762D01*
X562538D02*
X580262D01*
X562538Y895038D02*
Y903762D01*
Y895038D02*
X580262D01*
X339719Y972769D02*
X365281D01*
Y1015831D01*
X339719D02*
X365281D01*
X339719Y972769D02*
Y1015831D01*
X314369Y972769D02*
X339931D01*
Y1015831D01*
X314369D02*
X339931D01*
X314369Y972769D02*
Y1015831D01*
X289019Y1015831D02*
X314581D01*
X289019Y972769D02*
Y1015831D01*
Y972769D02*
X314581D01*
Y1015831D01*
X360418Y929662D02*
Y953538D01*
X319270D02*
X360418D01*
X319270Y929662D02*
Y953538D01*
Y929662D02*
X360418D01*
X320500Y843500D02*
Y945500D01*
X252500Y843500D02*
X320500D01*
X252500D02*
Y945500D01*
X320500D01*
X481019Y797369D02*
X506581D01*
Y840431D01*
X481019D02*
X506581D01*
X481019Y797369D02*
Y840431D01*
X759062Y999538D02*
Y1008262D01*
X741338D02*
X759062D01*
X741338Y999538D02*
Y1008262D01*
Y999538D02*
X759062D01*
X733762Y998338D02*
Y1007062D01*
X716038D02*
X733762D01*
X716038Y998338D02*
Y1007062D01*
Y998338D02*
X733762D01*
X523319Y1033069D02*
Y1076131D01*
X548881D01*
Y1033069D02*
Y1076131D01*
X523319Y1033069D02*
X548881D01*
X493719Y1033377D02*
Y1076439D01*
X519281D01*
Y1033377D02*
Y1076439D01*
X493719Y1033377D02*
X519281D01*
X637781Y765969D02*
Y809031D01*
X612219Y765969D02*
X637781D01*
X612219D02*
Y809031D01*
X637781D01*
D88*
X390339Y972539D02*
Y1001661D01*
X404461D01*
Y972539D02*
Y1001661D01*
X390339Y972539D02*
X404461D01*
X387761D02*
Y1001661D01*
X373639Y972539D02*
X387761D01*
X373639D02*
Y1001661D01*
X387761D01*
X314600Y835750D02*
X334600D01*
X314600Y801250D02*
Y835750D01*
Y801250D02*
X334600D01*
Y835750D01*
X338700Y834850D02*
X358700D01*
X338700Y800350D02*
Y834850D01*
Y800350D02*
X358700D01*
Y834850D01*
X323200Y843950D02*
X347200D01*
Y883450D01*
X323200D02*
X347200D01*
X323200Y843950D02*
Y883450D01*
Y927750D02*
X347200D01*
X323200Y888250D02*
Y927750D01*
Y888250D02*
X347200D01*
Y927750D01*
X646300Y685700D02*
X905300D01*
X646300Y655500D02*
Y685700D01*
Y655500D02*
X905300D01*
Y685700D01*
X912940Y686810D02*
X1070340D01*
X912940Y656610D02*
Y686810D01*
Y656610D02*
X1070340D01*
Y686810D01*
X508250Y766550D02*
Y869650D01*
X611350Y766550D02*
Y869650D01*
X508250D02*
X611350D01*
X508250Y766550D02*
X611350D01*
M02*
