G04*
G04 #@! TF.GenerationSoftware,Altium Limited,Altium Designer,24.10.1 (45)*
G04*
G04 Layer_Color=0*
%FSLAX44Y44*%
%MOMM*%
G71*
G04*
G04 #@! TF.SameCoordinates,5747CF6B-E7E8-4C91-AA59-05DF990D4A04*
G04*
G04*
G04 #@! TF.FilePolarity,Positive*
G04*
G01*
G75*
%ADD10C,0.1000*%
D10*
X397400Y982100D02*
Y992100D01*
X392400Y987100D02*
X402400D01*
X380700Y982100D02*
Y992100D01*
X375700Y987100D02*
X385700D01*
X592300Y894300D02*
Y904300D01*
X587300Y899300D02*
X597300D01*
X571400Y894400D02*
Y904400D01*
X566400Y899400D02*
X576400D01*
X347500Y994300D02*
X357500D01*
X352500Y989300D02*
Y999300D01*
X322150Y994300D02*
X332150D01*
X327150Y989300D02*
Y999300D01*
X296800Y994300D02*
X306800D01*
X301800Y989300D02*
Y999300D01*
X339843Y936600D02*
Y946600D01*
X334843Y941600D02*
X344843D01*
X279250Y889500D02*
Y899500D01*
X274250Y894500D02*
X284250D01*
X488800Y818900D02*
X498800D01*
X493800Y813900D02*
Y823900D01*
X750200Y998900D02*
Y1008900D01*
X745200Y1003900D02*
X755200D01*
X724900Y997700D02*
Y1007700D01*
X719900Y1002700D02*
X729900D01*
X536100Y1049600D02*
Y1059600D01*
X531100Y1054600D02*
X541100D01*
X506500Y1049908D02*
Y1059908D01*
X501500Y1054908D02*
X511500D01*
X625000Y782500D02*
Y792500D01*
X620000Y787500D02*
X630000D01*
M02*
