M48
;Layer_Color=9474304
;FILE_FORMAT=4:4
METRIC,LZ
;TYPE=PLATED
T01F00S00C0.3000
T02F00S00C0.4000
T03F00S00C0.6500
T05F00S00C0.7330
T06F00S00C0.7500
T07F00S00C0.7620
T09F00S00C0.9000
T10F00S00C0.9100
T11F00S00C0.9500
T12F00S00C1.0000
T13F00S00C1.2000
%
T01
X00299Y010373
X0040805Y0097745
T02
X006238Y007527
X003492Y009595
X003015Y009667
X003138Y01021
X003744Y010208
X003886Y011608
X0029675Y0114875
X004381Y011359
X004081Y010772
X004583Y010202
X004883Y009965
X005184Y010244
X005549Y008992
X005632Y008766
X005719Y008406
X005805Y008143
X006103Y008996
X004755Y008252
X00712Y010097
X007668Y010036
X004445Y012197
T03
X003429Y006636
X00370775
Y007716
X003429
X003798Y009105
Y009401
X004878
Y009105
X005538Y009416
X006026
X006825Y010412
X007313
X00783Y010258
X007837Y010597
X005491Y011859
X004411
X008917Y010597
X009199
X00891Y010258
X010279Y010597
T05
X006572Y008679
X006826
X00708
X007334
X007588
X007842
Y009695
X007588
X007334
X00708
X006826
X006572
X008096
X00835
X008604
X008858
X009112
X009366
X00962
X009874
Y008679
X00962
X009366
X009112
X008858
X008604
X00835
X008096
T06
X003993Y006641
Y007711
X0029813Y0118655
X0040513
X009204Y0102515
X010274
T07
X004665Y007272
Y007526
X004919
Y007272
X005173
Y007526
X007597Y007952
Y008206
X007851
Y007952
X008105
Y008206
T09
X008139Y006706
X008393
X008647
X008901
X0092814Y0067171
X0095354
X0097894
X0100434
X0102974
X0105514
X007885Y006706
X007631
X007377
X007123
X006869
X006615
T10
X003867Y00862
X004121
X004542
X004796
X005193Y011176
Y01143
T11
X00657005Y0118172
X00682405
X00707805
X00733205
X00758605
X00784005
X00809405
X00834805
X0088264
X0090804
X0093344
X0095884
X0098424
X0100964
X0103504
X0106044
T12
X0040259Y0122301
X0031242Y0122555
T13
X002856Y006919
Y007939
M30
