G04*
G04 #@! TF.GenerationSoftware,Altium Limited,Altium Designer,24.10.1 (45)*
G04*
G04 Layer_Color=255*
%FSLAX44Y44*%
%MOMM*%
G71*
G04*
G04 #@! TF.SameCoordinates,5747CF6B-E7E8-4C91-AA59-05DF990D4A04*
G04*
G04*
G04 #@! TF.FilePolarity,Positive*
G04*
G01*
G75*
%ADD41C,1.2600*%
G04:AMPARAMS|DCode=50|XSize=1.05mm|YSize=1.25mm|CornerRadius=0.525mm|HoleSize=0mm|Usage=FLASHONLY|Rotation=270.000|XOffset=0mm|YOffset=0mm|HoleType=Round|Shape=RoundedRectangle|*
%AMROUNDEDRECTD50*
21,1,1.0500,0.2000,0,0,270.0*
21,1,0.0000,1.2500,0,0,270.0*
1,1,1.0500,-0.1000,0.0000*
1,1,1.0500,-0.1000,0.0000*
1,1,1.0500,0.1000,0.0000*
1,1,1.0500,0.1000,0.0000*
%
%ADD50ROUNDEDRECTD50*%
G04:AMPARAMS|DCode=51|XSize=0.825mm|YSize=1.5mm|CornerRadius=0.4125mm|HoleSize=0mm|Usage=FLASHONLY|Rotation=270.000|XOffset=0mm|YOffset=0mm|HoleType=Round|Shape=RoundedRectangle|*
%AMROUNDEDRECTD51*
21,1,0.8250,0.6750,0,0,270.0*
21,1,0.0000,1.5000,0,0,270.0*
1,1,0.8250,-0.3375,0.0000*
1,1,0.8250,-0.3375,0.0000*
1,1,0.8250,0.3375,0.0000*
1,1,0.8250,0.3375,0.0000*
%
%ADD51ROUNDEDRECTD51*%
%ADD67C,1.4160*%
%ADD68R,1.4160X1.4160*%
%ADD69R,1.1500X1.1500*%
%ADD70C,1.1500*%
%ADD71C,1.0500*%
%ADD72R,1.8000X1.8000*%
%ADD73C,1.8000*%
%ADD74R,1.1500X1.1500*%
%ADD75R,1.4160X1.4160*%
%ADD76C,1.0000*%
%ADD77R,1.1330X1.1330*%
%ADD78C,1.1330*%
%ADD79C,1.4080*%
%ADD80R,1.4080X1.4080*%
%ADD81C,1.4250*%
%ADD82R,1.4250X1.4250*%
%ADD83C,2.0000*%
%ADD84C,1.2700*%
D41*
X281500Y854500D02*
D03*
Y934500D02*
D03*
D50*
X312750Y916750D02*
D03*
Y872250D02*
D03*
D51*
X281500Y935375D02*
D03*
Y853625D02*
D03*
D67*
X519300Y1143000D02*
D03*
X386700Y862000D02*
D03*
X454200D02*
D03*
D68*
X519300Y1117600D02*
D03*
D69*
X405130Y1186550D02*
D03*
X1027400Y1025150D02*
D03*
D70*
X298130Y1186550D02*
D03*
X399300Y771100D02*
D03*
X920400Y1025150D02*
D03*
D71*
X487800Y940100D02*
D03*
X379800D02*
D03*
X487800Y910500D02*
D03*
X379800D02*
D03*
X342900Y663600D02*
D03*
Y771600D02*
D03*
X370775D02*
D03*
Y663600D02*
D03*
X783000Y1025800D02*
D03*
X891000D02*
D03*
X783700Y1059700D02*
D03*
X891700D02*
D03*
X919900D02*
D03*
X1027900D02*
D03*
X441100Y1185900D02*
D03*
X549100D02*
D03*
D72*
X285600Y691900D02*
D03*
D73*
Y793900D02*
D03*
D74*
X399300Y664100D02*
D03*
D75*
X412100Y862000D02*
D03*
X479600D02*
D03*
D76*
X602600Y941600D02*
D03*
X553800D02*
D03*
X731300Y1041200D02*
D03*
X682500D02*
D03*
D77*
X987400Y969500D02*
D03*
D78*
X962000D02*
D03*
X936600D02*
D03*
X911200D02*
D03*
X885800D02*
D03*
X860400D02*
D03*
X835000D02*
D03*
X809600D02*
D03*
X784200D02*
D03*
X758800D02*
D03*
X733400D02*
D03*
X708000D02*
D03*
X682600D02*
D03*
X657200D02*
D03*
Y867900D02*
D03*
X682600D02*
D03*
X708000D02*
D03*
X733400D02*
D03*
X758800D02*
D03*
X784200D02*
D03*
X809600D02*
D03*
X835000D02*
D03*
X860400D02*
D03*
X885800D02*
D03*
X911200D02*
D03*
X936600D02*
D03*
X962000D02*
D03*
X987400D02*
D03*
D79*
X661500Y670600D02*
D03*
X686900D02*
D03*
X712300D02*
D03*
X737700D02*
D03*
X763100D02*
D03*
X788500D02*
D03*
X813900D02*
D03*
X839300D02*
D03*
X864700D02*
D03*
X928140Y671710D02*
D03*
X953540D02*
D03*
X978940D02*
D03*
X1004340D02*
D03*
X1029740D02*
D03*
D80*
X890100Y670600D02*
D03*
X1055140Y671710D02*
D03*
D81*
X882640Y1181720D02*
D03*
X908040D02*
D03*
X933440D02*
D03*
X958840D02*
D03*
X984240D02*
D03*
X1009640D02*
D03*
X1035040D02*
D03*
X834805D02*
D03*
X809405D02*
D03*
X784005D02*
D03*
X758605D02*
D03*
X733205D02*
D03*
X707805D02*
D03*
X682405D02*
D03*
D82*
X1060440D02*
D03*
X657005D02*
D03*
D83*
X312420Y1225550D02*
D03*
X402590Y1223010D02*
D03*
D84*
X759700Y795200D02*
D03*
Y820600D02*
D03*
X785100Y795200D02*
D03*
Y820600D02*
D03*
X810500Y795200D02*
D03*
Y820600D02*
D03*
X466500Y727200D02*
D03*
Y752600D02*
D03*
X491900Y727200D02*
D03*
Y752600D02*
D03*
X517300Y727200D02*
D03*
Y752600D02*
D03*
M02*
