G04*
G04 #@! TF.GenerationSoftware,Altium Limited,Altium Designer,24.10.1 (45)*
G04*
G04 Layer_Physical_Order=2*
G04 Layer_Color=16711680*
%FSLAX44Y44*%
%MOMM*%
G71*
G04*
G04 #@! TF.SameCoordinates,5747CF6B-E7E8-4C91-AA59-05DF990D4A04*
G04*
G04*
G04 #@! TF.FilePolarity,Positive*
G04*
G01*
G75*
%ADD12C,0.2540*%
%ADD41C,1.2600*%
G04:AMPARAMS|DCode=50|XSize=1.05mm|YSize=1.25mm|CornerRadius=0.525mm|HoleSize=0mm|Usage=FLASHONLY|Rotation=270.000|XOffset=0mm|YOffset=0mm|HoleType=Round|Shape=RoundedRectangle|*
%AMROUNDEDRECTD50*
21,1,1.0500,0.2000,0,0,270.0*
21,1,0.0000,1.2500,0,0,270.0*
1,1,1.0500,-0.1000,0.0000*
1,1,1.0500,-0.1000,0.0000*
1,1,1.0500,0.1000,0.0000*
1,1,1.0500,0.1000,0.0000*
%
%ADD50ROUNDEDRECTD50*%
G04:AMPARAMS|DCode=51|XSize=0.825mm|YSize=1.5mm|CornerRadius=0.4125mm|HoleSize=0mm|Usage=FLASHONLY|Rotation=270.000|XOffset=0mm|YOffset=0mm|HoleType=Round|Shape=RoundedRectangle|*
%AMROUNDEDRECTD51*
21,1,0.8250,0.6750,0,0,270.0*
21,1,0.0000,1.5000,0,0,270.0*
1,1,0.8250,-0.3375,0.0000*
1,1,0.8250,-0.3375,0.0000*
1,1,0.8250,0.3375,0.0000*
1,1,0.8250,0.3375,0.0000*
%
%ADD51ROUNDEDRECTD51*%
%ADD67C,1.4160*%
%ADD68R,1.4160X1.4160*%
%ADD69R,1.1500X1.1500*%
%ADD70C,1.1500*%
%ADD71C,1.0500*%
%ADD72R,1.8000X1.8000*%
%ADD73C,1.8000*%
%ADD74R,1.1500X1.1500*%
%ADD75R,1.4160X1.4160*%
%ADD76C,1.0000*%
%ADD77R,1.1330X1.1330*%
%ADD78C,1.1330*%
%ADD79C,1.4080*%
%ADD80R,1.4080X1.4080*%
%ADD81C,1.4250*%
%ADD82R,1.4250X1.4250*%
%ADD83C,2.0000*%
%ADD84C,1.2700*%
%ADD85C,0.8000*%
%ADD86C,0.4500*%
G36*
X1082532Y620369D02*
X257169D01*
Y860997D01*
X270702Y865510D01*
X270893Y865675D01*
X271125Y865771D01*
X271193Y865936D01*
X271328Y866053D01*
X271346Y866304D01*
X271442Y866537D01*
X271442Y922935D01*
X271323Y923223D01*
X271265Y923528D01*
X271170Y923594D01*
X271125Y923700D01*
X270838Y923820D01*
X270581Y923995D01*
X257169Y926789D01*
Y1251309D01*
X1082531D01*
X1082532Y620369D01*
D02*
G37*
%LPC*%
G36*
X403860Y1235491D02*
Y1224280D01*
X415071D01*
X414807Y1226284D01*
X413544Y1229334D01*
X411534Y1231954D01*
X408914Y1233964D01*
X405864Y1235227D01*
X403860Y1235491D01*
D02*
G37*
G36*
X401320D02*
X399316Y1235227D01*
X396266Y1233964D01*
X393646Y1231954D01*
X391636Y1229334D01*
X390373Y1226284D01*
X390109Y1224280D01*
X401320D01*
Y1235491D01*
D02*
G37*
G36*
X312420Y1236645D02*
X309548Y1236267D01*
X306873Y1235158D01*
X304575Y1233395D01*
X302812Y1231097D01*
X301703Y1228422D01*
X301325Y1225550D01*
X301703Y1222678D01*
X302812Y1220003D01*
X304575Y1217705D01*
X306873Y1215941D01*
X309548Y1214833D01*
X312420Y1214455D01*
X315292Y1214833D01*
X317967Y1215941D01*
X320265Y1217705D01*
X322029Y1220003D01*
X323137Y1222678D01*
X323515Y1225550D01*
X323137Y1228422D01*
X322029Y1231097D01*
X320265Y1233395D01*
X317967Y1235158D01*
X315292Y1236267D01*
X312420Y1236645D01*
D02*
G37*
G36*
X415071Y1221740D02*
X403860D01*
Y1210529D01*
X405864Y1210793D01*
X408914Y1212056D01*
X411534Y1214066D01*
X413544Y1216686D01*
X414807Y1219736D01*
X415071Y1221740D01*
D02*
G37*
G36*
X401320D02*
X390109D01*
X390373Y1219736D01*
X391636Y1216686D01*
X393646Y1214066D01*
X396266Y1212056D01*
X399316Y1210793D01*
X401320Y1210529D01*
Y1221740D01*
D02*
G37*
G36*
X909310Y1191301D02*
Y1182990D01*
X917621D01*
X917456Y1184243D01*
X916482Y1186594D01*
X914933Y1188613D01*
X912914Y1190162D01*
X910563Y1191136D01*
X909310Y1191301D01*
D02*
G37*
G36*
X934710D02*
Y1182990D01*
X943021D01*
X942856Y1184243D01*
X941882Y1186594D01*
X940333Y1188613D01*
X938314Y1190162D01*
X935963Y1191136D01*
X934710Y1191301D01*
D02*
G37*
G36*
X906770D02*
X905517Y1191136D01*
X903166Y1190162D01*
X901147Y1188613D01*
X899598Y1186594D01*
X898624Y1184243D01*
X898459Y1182990D01*
X906770D01*
Y1191301D01*
D02*
G37*
G36*
X932170D02*
X930917Y1191136D01*
X928566Y1190162D01*
X926547Y1188613D01*
X924998Y1186594D01*
X924024Y1184243D01*
X923859Y1182990D01*
X932170D01*
Y1191301D01*
D02*
G37*
G36*
X411880Y1193300D02*
X398380D01*
Y1179800D01*
X411880D01*
Y1193300D01*
D02*
G37*
G36*
X298130Y1193358D02*
X296368Y1193126D01*
X294726Y1192446D01*
X293316Y1191364D01*
X292234Y1189954D01*
X291554Y1188312D01*
X291322Y1186550D01*
X291554Y1184788D01*
X292234Y1183146D01*
X293316Y1181736D01*
X294726Y1180654D01*
X296368Y1179974D01*
X298130Y1179742D01*
X299892Y1179974D01*
X301534Y1180654D01*
X302944Y1181736D01*
X304026Y1183146D01*
X304706Y1184788D01*
X304938Y1186550D01*
X304706Y1188312D01*
X304026Y1189954D01*
X302944Y1191364D01*
X301534Y1192446D01*
X299892Y1193126D01*
X298130Y1193358D01*
D02*
G37*
G36*
X549100Y1192272D02*
X546661Y1191787D01*
X544594Y1190406D01*
X543213Y1188339D01*
X542728Y1185900D01*
X543213Y1183461D01*
X544594Y1181394D01*
X546661Y1180013D01*
X549100Y1179528D01*
X551539Y1180013D01*
X553606Y1181394D01*
X554987Y1183461D01*
X555472Y1185900D01*
X554987Y1188339D01*
X553606Y1190406D01*
X551539Y1191787D01*
X549100Y1192272D01*
D02*
G37*
G36*
X441100D02*
X438661Y1191787D01*
X436594Y1190406D01*
X435213Y1188339D01*
X434728Y1185900D01*
X435213Y1183461D01*
X436594Y1181394D01*
X438661Y1180013D01*
X441100Y1179528D01*
X443539Y1180013D01*
X445606Y1181394D01*
X446987Y1183461D01*
X447472Y1185900D01*
X446987Y1188339D01*
X445606Y1190406D01*
X443539Y1191787D01*
X441100Y1192272D01*
D02*
G37*
G36*
X1068565Y1189845D02*
X1052315D01*
Y1173595D01*
X1068565D01*
Y1189845D01*
D02*
G37*
G36*
X665130D02*
X648880D01*
Y1173595D01*
X665130D01*
Y1189845D01*
D02*
G37*
G36*
X1035040Y1189915D02*
X1032919Y1189636D01*
X1030943Y1188817D01*
X1029245Y1187515D01*
X1027943Y1185818D01*
X1027124Y1183841D01*
X1026845Y1181720D01*
X1027124Y1179599D01*
X1027943Y1177623D01*
X1029245Y1175925D01*
X1030943Y1174623D01*
X1032919Y1173804D01*
X1035040Y1173525D01*
X1037161Y1173804D01*
X1039138Y1174623D01*
X1040835Y1175925D01*
X1042137Y1177623D01*
X1042956Y1179599D01*
X1043235Y1181720D01*
X1042956Y1183841D01*
X1042137Y1185818D01*
X1040835Y1187515D01*
X1039138Y1188817D01*
X1037161Y1189636D01*
X1035040Y1189915D01*
D02*
G37*
G36*
X1009640D02*
X1007519Y1189636D01*
X1005543Y1188817D01*
X1003845Y1187515D01*
X1002543Y1185818D01*
X1001724Y1183841D01*
X1001445Y1181720D01*
X1001724Y1179599D01*
X1002543Y1177623D01*
X1003845Y1175925D01*
X1005543Y1174623D01*
X1007519Y1173804D01*
X1009640Y1173525D01*
X1011761Y1173804D01*
X1013738Y1174623D01*
X1015435Y1175925D01*
X1016737Y1177623D01*
X1017556Y1179599D01*
X1017835Y1181720D01*
X1017556Y1183841D01*
X1016737Y1185818D01*
X1015435Y1187515D01*
X1013738Y1188817D01*
X1011761Y1189636D01*
X1009640Y1189915D01*
D02*
G37*
G36*
X984240D02*
X982119Y1189636D01*
X980143Y1188817D01*
X978445Y1187515D01*
X977143Y1185818D01*
X976324Y1183841D01*
X976045Y1181720D01*
X976324Y1179599D01*
X977143Y1177623D01*
X978445Y1175925D01*
X980143Y1174623D01*
X982119Y1173804D01*
X984240Y1173525D01*
X986361Y1173804D01*
X988338Y1174623D01*
X990035Y1175925D01*
X991337Y1177623D01*
X992156Y1179599D01*
X992435Y1181720D01*
X992156Y1183841D01*
X991337Y1185818D01*
X990035Y1187515D01*
X988338Y1188817D01*
X986361Y1189636D01*
X984240Y1189915D01*
D02*
G37*
G36*
X958840D02*
X956719Y1189636D01*
X954743Y1188817D01*
X953045Y1187515D01*
X951743Y1185818D01*
X950924Y1183841D01*
X950645Y1181720D01*
X950924Y1179599D01*
X951743Y1177623D01*
X953045Y1175925D01*
X954743Y1174623D01*
X956719Y1173804D01*
X958840Y1173525D01*
X960961Y1173804D01*
X962938Y1174623D01*
X964635Y1175925D01*
X965937Y1177623D01*
X966756Y1179599D01*
X967035Y1181720D01*
X966756Y1183841D01*
X965937Y1185818D01*
X964635Y1187515D01*
X962938Y1188817D01*
X960961Y1189636D01*
X958840Y1189915D01*
D02*
G37*
G36*
X882640D02*
X880519Y1189636D01*
X878542Y1188817D01*
X876845Y1187515D01*
X875543Y1185818D01*
X874724Y1183841D01*
X874445Y1181720D01*
X874724Y1179599D01*
X875543Y1177623D01*
X876845Y1175925D01*
X878542Y1174623D01*
X880519Y1173804D01*
X882640Y1173525D01*
X884761Y1173804D01*
X886738Y1174623D01*
X888435Y1175925D01*
X889737Y1177623D01*
X890556Y1179599D01*
X890835Y1181720D01*
X890556Y1183841D01*
X889737Y1185818D01*
X888435Y1187515D01*
X886738Y1188817D01*
X884761Y1189636D01*
X882640Y1189915D01*
D02*
G37*
G36*
X834805D02*
X832684Y1189636D01*
X830707Y1188817D01*
X829010Y1187515D01*
X827708Y1185818D01*
X826889Y1183841D01*
X826610Y1181720D01*
X826889Y1179599D01*
X827708Y1177623D01*
X829010Y1175925D01*
X830707Y1174623D01*
X832684Y1173804D01*
X834805Y1173525D01*
X836926Y1173804D01*
X838903Y1174623D01*
X840600Y1175925D01*
X841902Y1177623D01*
X842721Y1179599D01*
X843000Y1181720D01*
X842721Y1183841D01*
X841902Y1185818D01*
X840600Y1187515D01*
X838903Y1188817D01*
X836926Y1189636D01*
X834805Y1189915D01*
D02*
G37*
G36*
X809405D02*
X807284Y1189636D01*
X805307Y1188817D01*
X803610Y1187515D01*
X802308Y1185818D01*
X801489Y1183841D01*
X801210Y1181720D01*
X801489Y1179599D01*
X802308Y1177623D01*
X803610Y1175925D01*
X805307Y1174623D01*
X807284Y1173804D01*
X809405Y1173525D01*
X811526Y1173804D01*
X813503Y1174623D01*
X815200Y1175925D01*
X816502Y1177623D01*
X817321Y1179599D01*
X817600Y1181720D01*
X817321Y1183841D01*
X816502Y1185818D01*
X815200Y1187515D01*
X813503Y1188817D01*
X811526Y1189636D01*
X809405Y1189915D01*
D02*
G37*
G36*
X784005D02*
X781884Y1189636D01*
X779908Y1188817D01*
X778210Y1187515D01*
X776908Y1185818D01*
X776089Y1183841D01*
X775810Y1181720D01*
X776089Y1179599D01*
X776908Y1177623D01*
X778210Y1175925D01*
X779908Y1174623D01*
X781884Y1173804D01*
X784005Y1173525D01*
X786126Y1173804D01*
X788103Y1174623D01*
X789800Y1175925D01*
X791102Y1177623D01*
X791921Y1179599D01*
X792200Y1181720D01*
X791921Y1183841D01*
X791102Y1185818D01*
X789800Y1187515D01*
X788103Y1188817D01*
X786126Y1189636D01*
X784005Y1189915D01*
D02*
G37*
G36*
X758605D02*
X756484Y1189636D01*
X754508Y1188817D01*
X752810Y1187515D01*
X751508Y1185818D01*
X750689Y1183841D01*
X750410Y1181720D01*
X750689Y1179599D01*
X751508Y1177623D01*
X752810Y1175925D01*
X754508Y1174623D01*
X756484Y1173804D01*
X758605Y1173525D01*
X760726Y1173804D01*
X762703Y1174623D01*
X764400Y1175925D01*
X765702Y1177623D01*
X766521Y1179599D01*
X766800Y1181720D01*
X766521Y1183841D01*
X765702Y1185818D01*
X764400Y1187515D01*
X762703Y1188817D01*
X760726Y1189636D01*
X758605Y1189915D01*
D02*
G37*
G36*
X733205D02*
X731084Y1189636D01*
X729108Y1188817D01*
X727410Y1187515D01*
X726108Y1185818D01*
X725289Y1183841D01*
X725010Y1181720D01*
X725289Y1179599D01*
X726108Y1177623D01*
X727410Y1175925D01*
X729108Y1174623D01*
X731084Y1173804D01*
X733205Y1173525D01*
X735326Y1173804D01*
X737303Y1174623D01*
X739000Y1175925D01*
X740302Y1177623D01*
X741121Y1179599D01*
X741400Y1181720D01*
X741121Y1183841D01*
X740302Y1185818D01*
X739000Y1187515D01*
X737303Y1188817D01*
X735326Y1189636D01*
X733205Y1189915D01*
D02*
G37*
G36*
X707805D02*
X705684Y1189636D01*
X703708Y1188817D01*
X702010Y1187515D01*
X700708Y1185818D01*
X699889Y1183841D01*
X699610Y1181720D01*
X699889Y1179599D01*
X700708Y1177623D01*
X702010Y1175925D01*
X703708Y1174623D01*
X705684Y1173804D01*
X707805Y1173525D01*
X709926Y1173804D01*
X711903Y1174623D01*
X713600Y1175925D01*
X714902Y1177623D01*
X715721Y1179599D01*
X716000Y1181720D01*
X715721Y1183841D01*
X714902Y1185818D01*
X713600Y1187515D01*
X711903Y1188817D01*
X709926Y1189636D01*
X707805Y1189915D01*
D02*
G37*
G36*
X682405D02*
X680284Y1189636D01*
X678307Y1188817D01*
X676610Y1187515D01*
X675308Y1185818D01*
X674489Y1183841D01*
X674210Y1181720D01*
X674489Y1179599D01*
X675308Y1177623D01*
X676610Y1175925D01*
X678307Y1174623D01*
X680284Y1173804D01*
X682405Y1173525D01*
X684526Y1173804D01*
X686503Y1174623D01*
X688200Y1175925D01*
X689502Y1177623D01*
X690321Y1179599D01*
X690600Y1181720D01*
X690321Y1183841D01*
X689502Y1185818D01*
X688200Y1187515D01*
X686503Y1188817D01*
X684526Y1189636D01*
X682405Y1189915D01*
D02*
G37*
G36*
X943021Y1180450D02*
X934710D01*
Y1172139D01*
X935963Y1172304D01*
X938314Y1173278D01*
X940333Y1174827D01*
X941882Y1176846D01*
X942856Y1179197D01*
X943021Y1180450D01*
D02*
G37*
G36*
X917621D02*
X909310D01*
Y1172139D01*
X910563Y1172304D01*
X912914Y1173278D01*
X914933Y1174827D01*
X916482Y1176846D01*
X917456Y1179197D01*
X917621Y1180450D01*
D02*
G37*
G36*
X932170D02*
X923859D01*
X924024Y1179197D01*
X924998Y1176846D01*
X926547Y1174827D01*
X928566Y1173278D01*
X930917Y1172304D01*
X932170Y1172139D01*
Y1180450D01*
D02*
G37*
G36*
X906770D02*
X898459D01*
X898624Y1179197D01*
X899598Y1176846D01*
X901147Y1174827D01*
X903166Y1173278D01*
X905517Y1172304D01*
X906770Y1172139D01*
Y1180450D01*
D02*
G37*
G36*
X389870Y1167229D02*
Y1162070D01*
X395029D01*
X394972Y1162507D01*
X394313Y1164098D01*
X393264Y1165464D01*
X391898Y1166513D01*
X390307Y1167172D01*
X389870Y1167229D01*
D02*
G37*
G36*
X387330D02*
X386893Y1167172D01*
X385302Y1166513D01*
X383936Y1165464D01*
X382887Y1164098D01*
X382228Y1162507D01*
X382171Y1162070D01*
X387330D01*
Y1167229D01*
D02*
G37*
G36*
X395029Y1159530D02*
X389870D01*
Y1154371D01*
X390307Y1154428D01*
X391898Y1155087D01*
X393264Y1156136D01*
X394313Y1157502D01*
X394972Y1159093D01*
X395029Y1159530D01*
D02*
G37*
G36*
X387330D02*
X382171D01*
X382228Y1159093D01*
X382887Y1157502D01*
X383936Y1156136D01*
X385302Y1155087D01*
X386893Y1154428D01*
X387330Y1154371D01*
Y1159530D01*
D02*
G37*
G36*
X298020Y1155179D02*
Y1150020D01*
X303179D01*
X303122Y1150457D01*
X302463Y1152048D01*
X301414Y1153414D01*
X300048Y1154463D01*
X298457Y1155122D01*
X298020Y1155179D01*
D02*
G37*
G36*
X295480D02*
X295043Y1155122D01*
X293452Y1154463D01*
X292086Y1153414D01*
X291037Y1152048D01*
X290378Y1150457D01*
X290321Y1150020D01*
X295480D01*
Y1155179D01*
D02*
G37*
G36*
X303179Y1147480D02*
X298020D01*
Y1142321D01*
X298457Y1142378D01*
X300048Y1143037D01*
X301414Y1144086D01*
X302463Y1145452D01*
X303122Y1147043D01*
X303179Y1147480D01*
D02*
G37*
G36*
X295480D02*
X290321D01*
X290378Y1147043D01*
X291037Y1145452D01*
X292086Y1144086D01*
X293452Y1143037D01*
X295043Y1142378D01*
X295480Y1142321D01*
Y1147480D01*
D02*
G37*
G36*
X444500Y1224798D02*
X442549Y1224410D01*
X440895Y1223305D01*
X439790Y1221651D01*
X439402Y1219700D01*
X439790Y1217749D01*
X440895Y1216095D01*
X442549Y1214990D01*
X444500Y1214602D01*
X446451Y1214990D01*
X448105Y1216095D01*
X448280Y1216358D01*
X449544Y1216482D01*
X453186Y1212841D01*
Y1141859D01*
X449541Y1138214D01*
X442567D01*
X441705Y1139505D01*
X440051Y1140610D01*
X438100Y1140998D01*
X436149Y1140610D01*
X434495Y1139505D01*
X433390Y1137851D01*
X433002Y1135900D01*
X433390Y1133949D01*
X434495Y1132295D01*
X436149Y1131190D01*
X438100Y1130802D01*
X440051Y1131190D01*
X441705Y1132295D01*
X442567Y1133586D01*
X450500D01*
X451386Y1133762D01*
X452137Y1134263D01*
X457137Y1139263D01*
X457638Y1140014D01*
X457814Y1140900D01*
Y1213800D01*
X457638Y1214686D01*
X457137Y1215437D01*
X451237Y1221337D01*
X450486Y1221838D01*
X449600Y1222014D01*
X448967D01*
X448105Y1223305D01*
X446451Y1224410D01*
X444500Y1224798D01*
D02*
G37*
G36*
X519300Y1151150D02*
X517191Y1150872D01*
X515225Y1150058D01*
X513537Y1148763D01*
X512242Y1147075D01*
X511428Y1145109D01*
X511150Y1143000D01*
X511428Y1140891D01*
X512242Y1138925D01*
X513537Y1137237D01*
X515225Y1135942D01*
X517191Y1135128D01*
X519300Y1134850D01*
X521409Y1135128D01*
X523375Y1135942D01*
X525063Y1137237D01*
X526358Y1138925D01*
X527172Y1140891D01*
X527450Y1143000D01*
X527172Y1145109D01*
X526358Y1147075D01*
X525063Y1148763D01*
X523375Y1150058D01*
X521409Y1150872D01*
X519300Y1151150D01*
D02*
G37*
G36*
X528920Y1127220D02*
X520570D01*
Y1118870D01*
X528920D01*
Y1127220D01*
D02*
G37*
G36*
X518030D02*
X509680D01*
Y1118870D01*
X518030D01*
Y1127220D01*
D02*
G37*
G36*
X528920Y1116330D02*
X520570D01*
Y1107980D01*
X528920D01*
Y1116330D01*
D02*
G37*
G36*
X518030D02*
X509680D01*
Y1107980D01*
X518030D01*
Y1116330D01*
D02*
G37*
G36*
X409370Y1083629D02*
Y1078470D01*
X414529D01*
X414472Y1078907D01*
X413813Y1080498D01*
X412764Y1081864D01*
X411398Y1082913D01*
X409807Y1083572D01*
X409370Y1083629D01*
D02*
G37*
G36*
X406830D02*
X406393Y1083572D01*
X404802Y1082913D01*
X403436Y1081864D01*
X402387Y1080498D01*
X401728Y1078907D01*
X401671Y1078470D01*
X406830D01*
Y1083629D01*
D02*
G37*
G36*
X414529Y1075930D02*
X409370D01*
Y1070771D01*
X409807Y1070828D01*
X411398Y1071487D01*
X412764Y1072536D01*
X413813Y1073902D01*
X414472Y1075493D01*
X414529Y1075930D01*
D02*
G37*
G36*
X406830D02*
X401671D01*
X401728Y1075493D01*
X402387Y1073902D01*
X403436Y1072536D01*
X404802Y1071487D01*
X406393Y1070828D01*
X406830Y1070771D01*
Y1075930D01*
D02*
G37*
G36*
X1027900Y1066072D02*
X1025461Y1065587D01*
X1023394Y1064206D01*
X1022013Y1062139D01*
X1021528Y1059700D01*
X1022013Y1057261D01*
X1023394Y1055194D01*
X1025461Y1053813D01*
X1027900Y1053328D01*
X1030339Y1053813D01*
X1032406Y1055194D01*
X1033787Y1057261D01*
X1034273Y1059700D01*
X1033787Y1062139D01*
X1032406Y1064206D01*
X1030339Y1065587D01*
X1027900Y1066072D01*
D02*
G37*
G36*
X919900D02*
X917461Y1065587D01*
X915394Y1064206D01*
X914013Y1062139D01*
X913528Y1059700D01*
X914013Y1057261D01*
X915394Y1055194D01*
X917461Y1053813D01*
X919900Y1053328D01*
X922339Y1053813D01*
X924406Y1055194D01*
X925787Y1057261D01*
X926273Y1059700D01*
X925787Y1062139D01*
X924406Y1064206D01*
X922339Y1065587D01*
X919900Y1066072D01*
D02*
G37*
G36*
X891700D02*
X889261Y1065587D01*
X887194Y1064206D01*
X885813Y1062139D01*
X885328Y1059700D01*
X885813Y1057261D01*
X887194Y1055194D01*
X889261Y1053813D01*
X891700Y1053328D01*
X894139Y1053813D01*
X896206Y1055194D01*
X897587Y1057261D01*
X898073Y1059700D01*
X897587Y1062139D01*
X896206Y1064206D01*
X894139Y1065587D01*
X891700Y1066072D01*
D02*
G37*
G36*
X783700D02*
X781261Y1065587D01*
X779194Y1064206D01*
X777813Y1062139D01*
X777328Y1059700D01*
X777813Y1057261D01*
X779194Y1055194D01*
X781261Y1053813D01*
X783700Y1053328D01*
X786139Y1053813D01*
X788206Y1055194D01*
X789587Y1057261D01*
X790072Y1059700D01*
X789587Y1062139D01*
X788206Y1064206D01*
X786139Y1065587D01*
X783700Y1066072D01*
D02*
G37*
G36*
X300270Y1041931D02*
Y1038570D01*
X303631D01*
X303512Y1039169D01*
X302453Y1040753D01*
X300869Y1041812D01*
X300270Y1041931D01*
D02*
G37*
G36*
X297730D02*
X297131Y1041812D01*
X295547Y1040753D01*
X294488Y1039169D01*
X294369Y1038570D01*
X297730D01*
Y1041931D01*
D02*
G37*
G36*
X731300Y1047318D02*
X728959Y1046852D01*
X726974Y1045526D01*
X725648Y1043541D01*
X725182Y1041200D01*
X725648Y1038859D01*
X726974Y1036874D01*
X728959Y1035548D01*
X731300Y1035082D01*
X733641Y1035548D01*
X735626Y1036874D01*
X736952Y1038859D01*
X737418Y1041200D01*
X736952Y1043541D01*
X735626Y1045526D01*
X733641Y1046852D01*
X731300Y1047318D01*
D02*
G37*
G36*
X682500D02*
X680159Y1046852D01*
X678174Y1045526D01*
X676848Y1043541D01*
X676383Y1041200D01*
X676848Y1038859D01*
X678174Y1036874D01*
X680159Y1035548D01*
X682500Y1035082D01*
X684841Y1035548D01*
X686826Y1036874D01*
X688152Y1038859D01*
X688618Y1041200D01*
X688152Y1043541D01*
X686826Y1045526D01*
X684841Y1046852D01*
X682500Y1047318D01*
D02*
G37*
G36*
X303631Y1036030D02*
X300270D01*
Y1032669D01*
X300869Y1032788D01*
X302453Y1033847D01*
X303512Y1035431D01*
X303631Y1036030D01*
D02*
G37*
G36*
X297730D02*
X294369D01*
X294488Y1035431D01*
X295547Y1033847D01*
X297131Y1032788D01*
X297730Y1032669D01*
Y1036030D01*
D02*
G37*
G36*
X519670Y1030829D02*
Y1025670D01*
X524829D01*
X524772Y1026107D01*
X524113Y1027698D01*
X523064Y1029064D01*
X521698Y1030113D01*
X520107Y1030772D01*
X519670Y1030829D01*
D02*
G37*
G36*
X517130D02*
X516693Y1030772D01*
X515102Y1030113D01*
X513736Y1029064D01*
X512687Y1027698D01*
X512028Y1026107D01*
X511971Y1025670D01*
X517130D01*
Y1030829D01*
D02*
G37*
G36*
X891000Y1032172D02*
X888561Y1031687D01*
X886494Y1030306D01*
X885113Y1028239D01*
X884628Y1025800D01*
X885113Y1023362D01*
X886494Y1021294D01*
X888561Y1019913D01*
X891000Y1019428D01*
X893439Y1019913D01*
X895506Y1021294D01*
X896888Y1023362D01*
X897373Y1025800D01*
X896888Y1028239D01*
X895506Y1030306D01*
X893439Y1031687D01*
X891000Y1032172D01*
D02*
G37*
G36*
X783000D02*
X780561Y1031687D01*
X778494Y1030306D01*
X777113Y1028239D01*
X776628Y1025800D01*
X777113Y1023362D01*
X778494Y1021294D01*
X780561Y1019913D01*
X783000Y1019428D01*
X785439Y1019913D01*
X787506Y1021294D01*
X788887Y1023362D01*
X789372Y1025800D01*
X788887Y1028239D01*
X787506Y1030306D01*
X785439Y1031687D01*
X783000Y1032172D01*
D02*
G37*
G36*
X1034150Y1031900D02*
X1020650D01*
Y1027465D01*
X970850D01*
X969964Y1027288D01*
X969213Y1026787D01*
X942641Y1000214D01*
X844288D01*
X843402Y1000038D01*
X842651Y999537D01*
X833363Y990249D01*
X832862Y989498D01*
X832686Y988612D01*
Y975755D01*
X831639Y975322D01*
X830247Y974253D01*
X829178Y972861D01*
X828507Y971240D01*
X828278Y969500D01*
X828507Y967760D01*
X829178Y966139D01*
X830247Y964746D01*
X831639Y963678D01*
X833260Y963007D01*
X835000Y962777D01*
X836740Y963007D01*
X838361Y963678D01*
X839754Y964746D01*
X840822Y966139D01*
X841494Y967760D01*
X841722Y969500D01*
X841494Y971240D01*
X840822Y972861D01*
X839754Y974253D01*
X838361Y975322D01*
X837315Y975755D01*
Y987654D01*
X845247Y995585D01*
X943600D01*
X944486Y995762D01*
X945237Y996263D01*
X971809Y1022836D01*
X1020650D01*
Y1018400D01*
X1034150D01*
Y1031900D01*
D02*
G37*
G36*
X920400Y1031958D02*
X918638Y1031726D01*
X916996Y1031046D01*
X915586Y1029964D01*
X914504Y1028554D01*
X913824Y1026912D01*
X913592Y1025150D01*
X913824Y1023388D01*
X914504Y1021746D01*
X915586Y1020336D01*
X916996Y1019254D01*
X918638Y1018574D01*
X920400Y1018342D01*
X922162Y1018574D01*
X923804Y1019254D01*
X925214Y1020336D01*
X926296Y1021746D01*
X926976Y1023388D01*
X927208Y1025150D01*
X926976Y1026912D01*
X926296Y1028554D01*
X925214Y1029964D01*
X923804Y1031046D01*
X922162Y1031726D01*
X920400Y1031958D01*
D02*
G37*
G36*
X524829Y1023130D02*
X519670D01*
Y1017971D01*
X520107Y1018028D01*
X521698Y1018687D01*
X523064Y1019736D01*
X524113Y1021102D01*
X524772Y1022693D01*
X524829Y1023130D01*
D02*
G37*
G36*
X517130D02*
X511971D01*
X512028Y1022693D01*
X512687Y1021102D01*
X513736Y1019736D01*
X515102Y1018687D01*
X516693Y1018028D01*
X517130Y1017971D01*
Y1023130D01*
D02*
G37*
G36*
X313800Y1026098D02*
X311849Y1025710D01*
X310195Y1024605D01*
X309090Y1022951D01*
X308702Y1021000D01*
X309090Y1019049D01*
X310195Y1017395D01*
X311849Y1016290D01*
X313800Y1015902D01*
X315751Y1016290D01*
X317405Y1017395D01*
X318200Y1018586D01*
X369866D01*
X370795Y1017195D01*
X372449Y1016090D01*
X374400Y1015702D01*
X376351Y1016090D01*
X378005Y1017195D01*
X379110Y1018849D01*
X379498Y1020800D01*
X379110Y1022751D01*
X378005Y1024405D01*
X376351Y1025510D01*
X374400Y1025898D01*
X372449Y1025510D01*
X370795Y1024405D01*
X370000Y1023214D01*
X318334D01*
X317405Y1024605D01*
X315751Y1025710D01*
X313800Y1026098D01*
D02*
G37*
G36*
X713270Y1016129D02*
Y1010970D01*
X718429D01*
X718372Y1011407D01*
X717713Y1012998D01*
X716664Y1014364D01*
X715298Y1015413D01*
X713707Y1016072D01*
X713270Y1016129D01*
D02*
G37*
G36*
X710730D02*
X710293Y1016072D01*
X708702Y1015413D01*
X707336Y1014364D01*
X706287Y1012998D01*
X705628Y1011407D01*
X705571Y1010970D01*
X710730D01*
Y1016129D01*
D02*
G37*
G36*
X768070Y1010029D02*
Y1004870D01*
X773229D01*
X773172Y1005307D01*
X772513Y1006898D01*
X771464Y1008264D01*
X770098Y1009313D01*
X768507Y1009972D01*
X768070Y1010029D01*
D02*
G37*
G36*
X765530D02*
X765093Y1009972D01*
X763502Y1009313D01*
X762136Y1008264D01*
X761087Y1006898D01*
X760428Y1005307D01*
X760371Y1004870D01*
X765530D01*
Y1010029D01*
D02*
G37*
G36*
X718429Y1008430D02*
X713270D01*
Y1003271D01*
X713707Y1003328D01*
X715298Y1003987D01*
X716664Y1005036D01*
X717713Y1006402D01*
X718372Y1007993D01*
X718429Y1008430D01*
D02*
G37*
G36*
X710730D02*
X705571D01*
X705628Y1007993D01*
X706287Y1006402D01*
X707336Y1005036D01*
X708702Y1003987D01*
X710293Y1003328D01*
X710730Y1003271D01*
Y1008430D01*
D02*
G37*
G36*
X773229Y1002330D02*
X768070D01*
Y997171D01*
X768507Y997228D01*
X770098Y997887D01*
X771464Y998936D01*
X772513Y1000302D01*
X773172Y1001893D01*
X773229Y1002330D01*
D02*
G37*
G36*
X765530D02*
X760371D01*
X760428Y1001893D01*
X761087Y1000302D01*
X762136Y998936D01*
X763502Y997887D01*
X765093Y997228D01*
X765530Y997171D01*
Y1002330D01*
D02*
G37*
G36*
X409320Y982081D02*
Y978720D01*
X412681D01*
X412562Y979319D01*
X411503Y980903D01*
X409919Y981962D01*
X409320Y982081D01*
D02*
G37*
G36*
X406780D02*
X406181Y981962D01*
X404597Y980903D01*
X403538Y979319D01*
X403419Y978720D01*
X406780D01*
Y982081D01*
D02*
G37*
G36*
X412681Y976180D02*
X409320D01*
Y972819D01*
X409919Y972938D01*
X411503Y973997D01*
X412562Y975581D01*
X412681Y976180D01*
D02*
G37*
G36*
X406780D02*
X403419D01*
X403538Y975581D01*
X404597Y973997D01*
X406181Y972938D01*
X406780Y972819D01*
Y976180D01*
D02*
G37*
G36*
X810870Y977609D02*
Y970770D01*
X817709D01*
X817594Y971642D01*
X816767Y973638D01*
X815452Y975352D01*
X813738Y976667D01*
X811742Y977494D01*
X810870Y977609D01*
D02*
G37*
G36*
X808330D02*
X807458Y977494D01*
X805462Y976667D01*
X803748Y975352D01*
X802433Y973638D01*
X801606Y971642D01*
X801491Y970770D01*
X808330D01*
Y977609D01*
D02*
G37*
G36*
X302770Y973129D02*
Y967970D01*
X307929D01*
X307872Y968407D01*
X307213Y969998D01*
X306164Y971364D01*
X304798Y972413D01*
X303207Y973072D01*
X302770Y973129D01*
D02*
G37*
G36*
X300230D02*
X299793Y973072D01*
X298202Y972413D01*
X296836Y971364D01*
X295787Y969998D01*
X295128Y968407D01*
X295071Y967970D01*
X300230D01*
Y973129D01*
D02*
G37*
G36*
X994065Y976165D02*
X980735D01*
Y962835D01*
X994065D01*
Y976165D01*
D02*
G37*
G36*
X962000Y976223D02*
X960260Y975993D01*
X958639Y975322D01*
X957246Y974253D01*
X956178Y972861D01*
X955507Y971240D01*
X955278Y969500D01*
X955507Y967760D01*
X956178Y966139D01*
X957246Y964746D01*
X958639Y963678D01*
X960260Y963007D01*
X962000Y962777D01*
X963740Y963007D01*
X965361Y963678D01*
X966754Y964746D01*
X967822Y966139D01*
X968493Y967760D01*
X968723Y969500D01*
X968493Y971240D01*
X967822Y972861D01*
X966754Y974253D01*
X965361Y975322D01*
X963740Y975993D01*
X962000Y976223D01*
D02*
G37*
G36*
X936600D02*
X934860Y975993D01*
X933239Y975322D01*
X931846Y974253D01*
X930778Y972861D01*
X930107Y971240D01*
X929878Y969500D01*
X930107Y967760D01*
X930778Y966139D01*
X931846Y964746D01*
X933239Y963678D01*
X934860Y963007D01*
X936600Y962777D01*
X938340Y963007D01*
X939961Y963678D01*
X941354Y964746D01*
X942422Y966139D01*
X943093Y967760D01*
X943323Y969500D01*
X943093Y971240D01*
X942422Y972861D01*
X941354Y974253D01*
X939961Y975322D01*
X938340Y975993D01*
X936600Y976223D01*
D02*
G37*
G36*
X911200D02*
X909460Y975993D01*
X907839Y975322D01*
X906447Y974253D01*
X905378Y972861D01*
X904707Y971240D01*
X904478Y969500D01*
X904707Y967760D01*
X905378Y966139D01*
X906447Y964746D01*
X907839Y963678D01*
X909460Y963007D01*
X911200Y962777D01*
X912940Y963007D01*
X914561Y963678D01*
X915954Y964746D01*
X917022Y966139D01*
X917693Y967760D01*
X917923Y969500D01*
X917693Y971240D01*
X917022Y972861D01*
X915954Y974253D01*
X914561Y975322D01*
X912940Y975993D01*
X911200Y976223D01*
D02*
G37*
G36*
X885800D02*
X884060Y975993D01*
X882439Y975322D01*
X881047Y974253D01*
X879978Y972861D01*
X879307Y971240D01*
X879078Y969500D01*
X879307Y967760D01*
X879978Y966139D01*
X881047Y964746D01*
X882439Y963678D01*
X884060Y963007D01*
X885800Y962777D01*
X887540Y963007D01*
X889161Y963678D01*
X890554Y964746D01*
X891622Y966139D01*
X892293Y967760D01*
X892523Y969500D01*
X892293Y971240D01*
X891622Y972861D01*
X890554Y974253D01*
X889161Y975322D01*
X887540Y975993D01*
X885800Y976223D01*
D02*
G37*
G36*
X860400D02*
X858660Y975993D01*
X857039Y975322D01*
X855647Y974253D01*
X854578Y972861D01*
X853907Y971240D01*
X853678Y969500D01*
X853907Y967760D01*
X854578Y966139D01*
X855647Y964746D01*
X857039Y963678D01*
X858660Y963007D01*
X860400Y962777D01*
X862140Y963007D01*
X863761Y963678D01*
X865154Y964746D01*
X866222Y966139D01*
X866893Y967760D01*
X867122Y969500D01*
X866893Y971240D01*
X866222Y972861D01*
X865154Y974253D01*
X863761Y975322D01*
X862140Y975993D01*
X860400Y976223D01*
D02*
G37*
G36*
X784200D02*
X782460Y975993D01*
X780839Y975322D01*
X779446Y974253D01*
X778378Y972861D01*
X777707Y971240D01*
X777478Y969500D01*
X777707Y967760D01*
X778378Y966139D01*
X779446Y964746D01*
X780839Y963678D01*
X782460Y963007D01*
X784200Y962777D01*
X785940Y963007D01*
X787561Y963678D01*
X788954Y964746D01*
X790022Y966139D01*
X790694Y967760D01*
X790922Y969500D01*
X790694Y971240D01*
X790022Y972861D01*
X788954Y974253D01*
X787561Y975322D01*
X785940Y975993D01*
X784200Y976223D01*
D02*
G37*
G36*
X758800D02*
X757060Y975993D01*
X755439Y975322D01*
X754046Y974253D01*
X752978Y972861D01*
X752307Y971240D01*
X752078Y969500D01*
X752307Y967760D01*
X752978Y966139D01*
X754046Y964746D01*
X755439Y963678D01*
X757060Y963007D01*
X758800Y962777D01*
X760540Y963007D01*
X762161Y963678D01*
X763554Y964746D01*
X764622Y966139D01*
X765294Y967760D01*
X765523Y969500D01*
X765294Y971240D01*
X764622Y972861D01*
X763554Y974253D01*
X762161Y975322D01*
X760540Y975993D01*
X758800Y976223D01*
D02*
G37*
G36*
X733400D02*
X731660Y975993D01*
X730039Y975322D01*
X728646Y974253D01*
X727578Y972861D01*
X726907Y971240D01*
X726678Y969500D01*
X726907Y967760D01*
X727578Y966139D01*
X728646Y964746D01*
X730039Y963678D01*
X731660Y963007D01*
X733400Y962777D01*
X735140Y963007D01*
X736761Y963678D01*
X738154Y964746D01*
X739222Y966139D01*
X739893Y967760D01*
X740123Y969500D01*
X739893Y971240D01*
X739222Y972861D01*
X738154Y974253D01*
X736761Y975322D01*
X735140Y975993D01*
X733400Y976223D01*
D02*
G37*
G36*
X708000D02*
X706260Y975993D01*
X704639Y975322D01*
X703247Y974253D01*
X702178Y972861D01*
X701507Y971240D01*
X701278Y969500D01*
X701507Y967760D01*
X702178Y966139D01*
X703247Y964746D01*
X704639Y963678D01*
X706260Y963007D01*
X708000Y962777D01*
X709740Y963007D01*
X711361Y963678D01*
X712754Y964746D01*
X713822Y966139D01*
X714493Y967760D01*
X714723Y969500D01*
X714493Y971240D01*
X713822Y972861D01*
X712754Y974253D01*
X711361Y975322D01*
X709740Y975993D01*
X708000Y976223D01*
D02*
G37*
G36*
X682600D02*
X680860Y975993D01*
X679239Y975322D01*
X677847Y974253D01*
X676778Y972861D01*
X676107Y971240D01*
X675878Y969500D01*
X676107Y967760D01*
X676778Y966139D01*
X677847Y964746D01*
X679239Y963678D01*
X680860Y963007D01*
X682600Y962777D01*
X684340Y963007D01*
X685961Y963678D01*
X687354Y964746D01*
X688422Y966139D01*
X689093Y967760D01*
X689323Y969500D01*
X689093Y971240D01*
X688422Y972861D01*
X687354Y974253D01*
X685961Y975322D01*
X684340Y975993D01*
X682600Y976223D01*
D02*
G37*
G36*
X657200D02*
X655460Y975993D01*
X653839Y975322D01*
X652447Y974253D01*
X651378Y972861D01*
X650707Y971240D01*
X650478Y969500D01*
X650707Y967760D01*
X651378Y966139D01*
X652447Y964746D01*
X653839Y963678D01*
X655460Y963007D01*
X657200Y962777D01*
X658940Y963007D01*
X660561Y963678D01*
X661954Y964746D01*
X663022Y966139D01*
X663693Y967760D01*
X663923Y969500D01*
X663693Y971240D01*
X663022Y972861D01*
X661954Y974253D01*
X660561Y975322D01*
X658940Y975993D01*
X657200Y976223D01*
D02*
G37*
G36*
X817709Y968230D02*
X810870D01*
Y961391D01*
X811742Y961506D01*
X813738Y962333D01*
X815452Y963648D01*
X816767Y965362D01*
X817594Y967358D01*
X817709Y968230D01*
D02*
G37*
G36*
X808330D02*
X801491D01*
X801606Y967358D01*
X802433Y965362D01*
X803748Y963648D01*
X805462Y962333D01*
X807458Y961506D01*
X808330Y961391D01*
Y968230D01*
D02*
G37*
G36*
X350470Y965929D02*
Y960770D01*
X355629D01*
X355572Y961207D01*
X354913Y962798D01*
X353864Y964164D01*
X352498Y965213D01*
X350907Y965872D01*
X350470Y965929D01*
D02*
G37*
G36*
X347930D02*
X347493Y965872D01*
X345902Y965213D01*
X344536Y964164D01*
X343487Y962798D01*
X342828Y961207D01*
X342771Y960770D01*
X347930D01*
Y965929D01*
D02*
G37*
G36*
X307929Y965430D02*
X302770D01*
Y960271D01*
X303207Y960328D01*
X304798Y960987D01*
X306164Y962036D01*
X307213Y963402D01*
X307872Y964993D01*
X307929Y965430D01*
D02*
G37*
G36*
X300230D02*
X295071D01*
X295128Y964993D01*
X295787Y963402D01*
X296836Y962036D01*
X298202Y960987D01*
X299793Y960328D01*
X300230Y960271D01*
Y965430D01*
D02*
G37*
G36*
X355629Y958230D02*
X350470D01*
Y953071D01*
X350907Y953128D01*
X352498Y953787D01*
X353864Y954836D01*
X354913Y956202D01*
X355572Y957793D01*
X355629Y958230D01*
D02*
G37*
G36*
X347930D02*
X342771D01*
X342828Y957793D01*
X343487Y956202D01*
X344536Y954836D01*
X345902Y953787D01*
X347493Y953128D01*
X347930Y953071D01*
Y958230D01*
D02*
G37*
G36*
X458300Y1025298D02*
X456349Y1024910D01*
X454695Y1023805D01*
X453590Y1022151D01*
X453202Y1020200D01*
X453590Y1018249D01*
X454695Y1016595D01*
X456349Y1015490D01*
X458300Y1015102D01*
X460251Y1015490D01*
X461905Y1016595D01*
X462767Y1017886D01*
X482741D01*
X485985Y1014641D01*
Y1005389D01*
X485985Y1005389D01*
Y1000967D01*
X484695Y1000105D01*
X483590Y998451D01*
X483202Y996500D01*
X483590Y994549D01*
X484695Y992895D01*
X486349Y991790D01*
X488300Y991402D01*
X490251Y991790D01*
X491905Y992895D01*
X492767Y994185D01*
X556241D01*
X559986Y990441D01*
Y945428D01*
X558716Y945043D01*
X558126Y945926D01*
X556141Y947252D01*
X553800Y947718D01*
X551459Y947252D01*
X549474Y945926D01*
X548148Y943941D01*
X547682Y941600D01*
X548148Y939259D01*
X549474Y937274D01*
X551459Y935948D01*
X553800Y935482D01*
X556141Y935948D01*
X558126Y937274D01*
X558716Y938157D01*
X559986Y937772D01*
Y905142D01*
X558716Y904516D01*
X558198Y904913D01*
X556607Y905572D01*
X556170Y905629D01*
Y899200D01*
Y892771D01*
X556607Y892828D01*
X558198Y893487D01*
X558716Y893884D01*
X559986Y893258D01*
Y880466D01*
X559595Y880205D01*
X558490Y878551D01*
X558102Y876600D01*
X558490Y874649D01*
X559595Y872995D01*
X560886Y872133D01*
Y861859D01*
X544041Y845014D01*
X469500D01*
X468614Y844838D01*
X467863Y844337D01*
X464863Y841337D01*
X464362Y840586D01*
X464185Y839700D01*
Y759597D01*
X462793Y759020D01*
X461258Y757842D01*
X460080Y756307D01*
X459503Y754914D01*
X411000D01*
X410114Y754738D01*
X409363Y754237D01*
X400663Y745537D01*
X400162Y744786D01*
X399986Y743900D01*
Y670850D01*
X392550D01*
Y657350D01*
X406050D01*
Y670850D01*
X404614D01*
Y742941D01*
X411959Y750285D01*
X459503D01*
X460080Y748893D01*
X461258Y747358D01*
X462793Y746180D01*
X464581Y745439D01*
X466500Y745187D01*
X468419Y745439D01*
X470207Y746180D01*
X471742Y747358D01*
X472920Y748893D01*
X473661Y750681D01*
X473913Y752600D01*
X473661Y754519D01*
X472920Y756307D01*
X471742Y757842D01*
X470207Y759020D01*
X468815Y759597D01*
Y838741D01*
X470459Y840386D01*
X545000D01*
X545886Y840562D01*
X546637Y841063D01*
X564837Y859263D01*
X565338Y860014D01*
X565514Y860900D01*
Y872133D01*
X566805Y872995D01*
X567910Y874649D01*
X568298Y876600D01*
X567910Y878551D01*
X566805Y880205D01*
X565151Y881310D01*
X564614Y881417D01*
Y991400D01*
X564438Y992286D01*
X563937Y993037D01*
X558837Y998137D01*
X558086Y998638D01*
X557200Y998814D01*
X492767D01*
X491905Y1000105D01*
X490615Y1000967D01*
Y1005389D01*
X490615Y1005389D01*
Y1015600D01*
X490438Y1016486D01*
X489937Y1017237D01*
X485337Y1021837D01*
X484586Y1022338D01*
X483700Y1022514D01*
X462767D01*
X461905Y1023805D01*
X460251Y1024910D01*
X458300Y1025298D01*
D02*
G37*
G36*
X602600Y947718D02*
X600259Y947252D01*
X598274Y945926D01*
X596948Y943941D01*
X596482Y941600D01*
X596948Y939259D01*
X598274Y937274D01*
X600259Y935948D01*
X602600Y935482D01*
X604941Y935948D01*
X606926Y937274D01*
X608252Y939259D01*
X608717Y941600D01*
X608252Y943941D01*
X606926Y945926D01*
X604941Y947252D01*
X602600Y947718D01*
D02*
G37*
G36*
X487800Y946472D02*
X485361Y945987D01*
X483294Y944606D01*
X481913Y942539D01*
X481428Y940100D01*
X481913Y937661D01*
X483294Y935594D01*
X485361Y934213D01*
X487800Y933727D01*
X490239Y934213D01*
X492306Y935594D01*
X493687Y937661D01*
X494173Y940100D01*
X493687Y942539D01*
X492306Y944606D01*
X490239Y945987D01*
X487800Y946472D01*
D02*
G37*
G36*
X379800D02*
X377361Y945987D01*
X375294Y944606D01*
X373913Y942539D01*
X373428Y940100D01*
X373913Y937661D01*
X375294Y935594D01*
X377361Y934213D01*
X379800Y933727D01*
X382239Y934213D01*
X384306Y935594D01*
X385687Y937661D01*
X386172Y940100D01*
X385687Y942539D01*
X384306Y944606D01*
X382239Y945987D01*
X379800Y946472D01*
D02*
G37*
G36*
X284875Y943948D02*
X278125D01*
X275906Y943656D01*
X273838Y942800D01*
X272063Y941437D01*
X270700Y939662D01*
X269844Y937594D01*
X269552Y935375D01*
X269844Y933156D01*
X270700Y931088D01*
X270918Y930805D01*
Y927500D01*
X271235Y926735D01*
X272000Y926418D01*
X291000D01*
X291765Y926735D01*
X292082Y927500D01*
Y930805D01*
X292300Y931088D01*
X293156Y933156D01*
X293448Y935375D01*
X293156Y937594D01*
X292300Y939662D01*
X290937Y941437D01*
X289162Y942800D01*
X287094Y943656D01*
X284875Y943948D01*
D02*
G37*
G36*
X313750Y923122D02*
X311750D01*
X309311Y922637D01*
X307244Y921256D01*
X305863Y919189D01*
X305378Y916750D01*
X305863Y914311D01*
X307244Y912244D01*
X309311Y910863D01*
X311750Y910378D01*
X313750D01*
X316189Y910863D01*
X318256Y912244D01*
X319637Y914311D01*
X320122Y916750D01*
X319637Y919189D01*
X318256Y921256D01*
X316189Y922637D01*
X313750Y923122D01*
D02*
G37*
G36*
X487800Y916872D02*
X485361Y916387D01*
X483294Y915006D01*
X481913Y912939D01*
X481428Y910500D01*
X481913Y908061D01*
X483294Y905994D01*
X485361Y904613D01*
X487800Y904128D01*
X490239Y904613D01*
X492306Y905994D01*
X493687Y908061D01*
X494173Y910500D01*
X493687Y912939D01*
X492306Y915006D01*
X490239Y916387D01*
X487800Y916872D01*
D02*
G37*
G36*
X379800D02*
X377361Y916387D01*
X375294Y915006D01*
X373913Y912939D01*
X373428Y910500D01*
X373913Y908061D01*
X375294Y905994D01*
X377361Y904613D01*
X379800Y904128D01*
X382239Y904613D01*
X384306Y905994D01*
X385687Y908061D01*
X386172Y910500D01*
X385687Y912939D01*
X384306Y915006D01*
X382239Y916387D01*
X379800Y916872D01*
D02*
G37*
G36*
X611570Y906029D02*
Y900870D01*
X616729D01*
X616672Y901307D01*
X616013Y902898D01*
X614964Y904264D01*
X613598Y905313D01*
X612007Y905972D01*
X611570Y906029D01*
D02*
G37*
G36*
X609030D02*
X608593Y905972D01*
X607002Y905313D01*
X605636Y904264D01*
X604587Y902898D01*
X603928Y901307D01*
X603871Y900870D01*
X609030D01*
Y906029D01*
D02*
G37*
G36*
X553630Y905629D02*
X553193Y905572D01*
X551602Y904913D01*
X550236Y903864D01*
X549187Y902498D01*
X548528Y900907D01*
X548471Y900470D01*
X553630D01*
Y905629D01*
D02*
G37*
G36*
X616729Y898330D02*
X611570D01*
Y893171D01*
X612007Y893228D01*
X613598Y893887D01*
X614964Y894936D01*
X616013Y896302D01*
X616672Y897893D01*
X616729Y898330D01*
D02*
G37*
G36*
X609030D02*
X603871D01*
X603928Y897893D01*
X604587Y896302D01*
X605636Y894936D01*
X607002Y893887D01*
X608593Y893228D01*
X609030Y893171D01*
Y898330D01*
D02*
G37*
G36*
X553630Y897930D02*
X548471D01*
X548528Y897493D01*
X549187Y895902D01*
X550236Y894536D01*
X551602Y893487D01*
X553193Y892828D01*
X553630Y892771D01*
Y897930D01*
D02*
G37*
G36*
X836270Y876009D02*
Y869170D01*
X843109D01*
X842994Y870042D01*
X842167Y872038D01*
X840852Y873752D01*
X839138Y875067D01*
X837142Y875894D01*
X836270Y876009D01*
D02*
G37*
G36*
X833730D02*
X832858Y875894D01*
X830862Y875067D01*
X829148Y873752D01*
X827833Y872038D01*
X827006Y870042D01*
X826891Y869170D01*
X833730D01*
Y876009D01*
D02*
G37*
G36*
X313750Y878622D02*
X311750D01*
X309311Y878137D01*
X307244Y876756D01*
X305863Y874689D01*
X305378Y872250D01*
X305863Y869811D01*
X307244Y867744D01*
X309311Y866363D01*
X311750Y865878D01*
X313750D01*
X316189Y866363D01*
X318256Y867744D01*
X319637Y869811D01*
X320122Y872250D01*
X319637Y874689D01*
X318256Y876756D01*
X316189Y878137D01*
X313750Y878622D01*
D02*
G37*
G36*
X987400Y874622D02*
X985660Y874393D01*
X984039Y873722D01*
X982646Y872654D01*
X981578Y871261D01*
X980907Y869640D01*
X980678Y867900D01*
X980907Y866160D01*
X981578Y864539D01*
X982646Y863147D01*
X984039Y862078D01*
X985660Y861407D01*
X987400Y861178D01*
X989140Y861407D01*
X990761Y862078D01*
X992154Y863147D01*
X993222Y864539D01*
X993894Y866160D01*
X994122Y867900D01*
X993894Y869640D01*
X993222Y871261D01*
X992154Y872654D01*
X990761Y873722D01*
X989140Y874393D01*
X987400Y874622D01*
D02*
G37*
G36*
X962000D02*
X960260Y874393D01*
X958639Y873722D01*
X957246Y872654D01*
X956178Y871261D01*
X955507Y869640D01*
X955278Y867900D01*
X955507Y866160D01*
X956178Y864539D01*
X957246Y863147D01*
X958639Y862078D01*
X960260Y861407D01*
X962000Y861178D01*
X963740Y861407D01*
X965361Y862078D01*
X966754Y863147D01*
X967822Y864539D01*
X968493Y866160D01*
X968723Y867900D01*
X968493Y869640D01*
X967822Y871261D01*
X966754Y872654D01*
X965361Y873722D01*
X963740Y874393D01*
X962000Y874622D01*
D02*
G37*
G36*
X936600D02*
X934860Y874393D01*
X933239Y873722D01*
X931846Y872654D01*
X930778Y871261D01*
X930107Y869640D01*
X929878Y867900D01*
X930107Y866160D01*
X930778Y864539D01*
X931846Y863147D01*
X933239Y862078D01*
X934860Y861407D01*
X936600Y861178D01*
X938340Y861407D01*
X939961Y862078D01*
X941354Y863147D01*
X942422Y864539D01*
X943093Y866160D01*
X943323Y867900D01*
X943093Y869640D01*
X942422Y871261D01*
X941354Y872654D01*
X939961Y873722D01*
X938340Y874393D01*
X936600Y874622D01*
D02*
G37*
G36*
X911200D02*
X909460Y874393D01*
X907839Y873722D01*
X906447Y872654D01*
X905378Y871261D01*
X904707Y869640D01*
X904478Y867900D01*
X904707Y866160D01*
X905378Y864539D01*
X906447Y863147D01*
X907839Y862078D01*
X909460Y861407D01*
X911200Y861178D01*
X912940Y861407D01*
X914561Y862078D01*
X915954Y863147D01*
X917022Y864539D01*
X917693Y866160D01*
X917923Y867900D01*
X917693Y869640D01*
X917022Y871261D01*
X915954Y872654D01*
X914561Y873722D01*
X912940Y874393D01*
X911200Y874622D01*
D02*
G37*
G36*
X885800D02*
X884060Y874393D01*
X882439Y873722D01*
X881047Y872654D01*
X879978Y871261D01*
X879307Y869640D01*
X879078Y867900D01*
X879307Y866160D01*
X879978Y864539D01*
X881047Y863147D01*
X882439Y862078D01*
X884060Y861407D01*
X885800Y861178D01*
X887540Y861407D01*
X889161Y862078D01*
X890554Y863147D01*
X891622Y864539D01*
X892293Y866160D01*
X892523Y867900D01*
X892293Y869640D01*
X891622Y871261D01*
X890554Y872654D01*
X889161Y873722D01*
X887540Y874393D01*
X885800Y874622D01*
D02*
G37*
G36*
X860400D02*
X858660Y874393D01*
X857039Y873722D01*
X855647Y872654D01*
X854578Y871261D01*
X853907Y869640D01*
X853678Y867900D01*
X853907Y866160D01*
X854578Y864539D01*
X855647Y863147D01*
X857039Y862078D01*
X858660Y861407D01*
X860400Y861178D01*
X862140Y861407D01*
X863761Y862078D01*
X865154Y863147D01*
X866222Y864539D01*
X866893Y866160D01*
X867122Y867900D01*
X866893Y869640D01*
X866222Y871261D01*
X865154Y872654D01*
X863761Y873722D01*
X862140Y874393D01*
X860400Y874622D01*
D02*
G37*
G36*
X809600D02*
X807860Y874393D01*
X806239Y873722D01*
X804846Y872654D01*
X803778Y871261D01*
X803107Y869640D01*
X802878Y867900D01*
X803107Y866160D01*
X803778Y864539D01*
X804846Y863147D01*
X806239Y862078D01*
X807860Y861407D01*
X809600Y861178D01*
X811340Y861407D01*
X812961Y862078D01*
X814354Y863147D01*
X815422Y864539D01*
X816094Y866160D01*
X816322Y867900D01*
X816094Y869640D01*
X815422Y871261D01*
X814354Y872654D01*
X812961Y873722D01*
X811340Y874393D01*
X809600Y874622D01*
D02*
G37*
G36*
X758800D02*
X757060Y874393D01*
X755439Y873722D01*
X754046Y872654D01*
X752978Y871261D01*
X752307Y869640D01*
X752078Y867900D01*
X752307Y866160D01*
X752978Y864539D01*
X754046Y863147D01*
X755439Y862078D01*
X757060Y861407D01*
X758800Y861178D01*
X760540Y861407D01*
X762161Y862078D01*
X763554Y863147D01*
X764622Y864539D01*
X765294Y866160D01*
X765523Y867900D01*
X765294Y869640D01*
X764622Y871261D01*
X763554Y872654D01*
X762161Y873722D01*
X760540Y874393D01*
X758800Y874622D01*
D02*
G37*
G36*
X733400D02*
X731660Y874393D01*
X730039Y873722D01*
X728646Y872654D01*
X727578Y871261D01*
X726907Y869640D01*
X726678Y867900D01*
X726907Y866160D01*
X727578Y864539D01*
X728646Y863147D01*
X730039Y862078D01*
X731660Y861407D01*
X733400Y861178D01*
X735140Y861407D01*
X736761Y862078D01*
X738154Y863147D01*
X739222Y864539D01*
X739893Y866160D01*
X740123Y867900D01*
X739893Y869640D01*
X739222Y871261D01*
X738154Y872654D01*
X736761Y873722D01*
X735140Y874393D01*
X733400Y874622D01*
D02*
G37*
G36*
X708000D02*
X706260Y874393D01*
X704639Y873722D01*
X703247Y872654D01*
X702178Y871261D01*
X701507Y869640D01*
X701278Y867900D01*
X701507Y866160D01*
X702178Y864539D01*
X703247Y863147D01*
X704639Y862078D01*
X706260Y861407D01*
X708000Y861178D01*
X709740Y861407D01*
X711361Y862078D01*
X712754Y863147D01*
X713822Y864539D01*
X714493Y866160D01*
X714723Y867900D01*
X714493Y869640D01*
X713822Y871261D01*
X712754Y872654D01*
X711361Y873722D01*
X709740Y874393D01*
X708000Y874622D01*
D02*
G37*
G36*
X682600D02*
X680860Y874393D01*
X679239Y873722D01*
X677847Y872654D01*
X676778Y871261D01*
X676107Y869640D01*
X675878Y867900D01*
X676107Y866160D01*
X676778Y864539D01*
X677847Y863147D01*
X679239Y862078D01*
X680860Y861407D01*
X682600Y861178D01*
X684340Y861407D01*
X685961Y862078D01*
X687354Y863147D01*
X688422Y864539D01*
X689093Y866160D01*
X689323Y867900D01*
X689093Y869640D01*
X688422Y871261D01*
X687354Y872654D01*
X685961Y873722D01*
X684340Y874393D01*
X682600Y874622D01*
D02*
G37*
G36*
X657200D02*
X655460Y874393D01*
X653839Y873722D01*
X652447Y872654D01*
X651378Y871261D01*
X650707Y869640D01*
X650478Y867900D01*
X650707Y866160D01*
X651378Y864539D01*
X652447Y863147D01*
X653839Y862078D01*
X655460Y861407D01*
X657200Y861178D01*
X658940Y861407D01*
X660561Y862078D01*
X661954Y863147D01*
X663022Y864539D01*
X663693Y866160D01*
X663923Y867900D01*
X663693Y869640D01*
X663022Y871261D01*
X661954Y872654D01*
X660561Y873722D01*
X658940Y874393D01*
X657200Y874622D01*
D02*
G37*
G36*
X843109Y866630D02*
X836270D01*
Y859791D01*
X837142Y859906D01*
X839138Y860733D01*
X840852Y862048D01*
X842167Y863762D01*
X842994Y865758D01*
X843109Y866630D01*
D02*
G37*
G36*
X833730D02*
X826891D01*
X827006Y865758D01*
X827833Y863762D01*
X829148Y862048D01*
X830862Y860733D01*
X832858Y859906D01*
X833730Y859791D01*
Y866630D01*
D02*
G37*
G36*
X487680Y870080D02*
X471520D01*
Y853920D01*
X487680D01*
Y870080D01*
D02*
G37*
G36*
X420180D02*
X404020D01*
Y853920D01*
X420180D01*
Y870080D01*
D02*
G37*
G36*
X454200Y870150D02*
X452091Y869872D01*
X450125Y869058D01*
X448437Y867763D01*
X447142Y866075D01*
X446328Y864109D01*
X446050Y862000D01*
X446328Y859891D01*
X447142Y857925D01*
X448437Y856237D01*
X450125Y854942D01*
X452091Y854128D01*
X454200Y853850D01*
X456309Y854128D01*
X458275Y854942D01*
X459963Y856237D01*
X461258Y857925D01*
X462072Y859891D01*
X462350Y862000D01*
X462072Y864109D01*
X461258Y866075D01*
X459963Y867763D01*
X458275Y869058D01*
X456309Y869872D01*
X454200Y870150D01*
D02*
G37*
G36*
X386700D02*
X384591Y869872D01*
X382625Y869058D01*
X380937Y867763D01*
X379642Y866075D01*
X378828Y864109D01*
X378550Y862000D01*
X378828Y859891D01*
X379642Y857925D01*
X380937Y856237D01*
X382625Y854942D01*
X384591Y854128D01*
X386700Y853850D01*
X388809Y854128D01*
X390775Y854942D01*
X392463Y856237D01*
X393758Y857925D01*
X394572Y859891D01*
X394850Y862000D01*
X394572Y864109D01*
X393758Y866075D01*
X392463Y867763D01*
X390775Y869058D01*
X388809Y869872D01*
X386700Y870150D01*
D02*
G37*
G36*
X291000Y862582D02*
X272000D01*
X271235Y862265D01*
X270918Y861500D01*
Y858195D01*
X270700Y857912D01*
X269844Y855844D01*
X269552Y853625D01*
X269844Y851406D01*
X270700Y849338D01*
X272063Y847563D01*
X273838Y846200D01*
X275906Y845344D01*
X278125Y845052D01*
X284875D01*
X287094Y845344D01*
X289162Y846200D01*
X290937Y847563D01*
X292300Y849338D01*
X293156Y851406D01*
X293448Y853625D01*
X293156Y855844D01*
X292300Y857912D01*
X292082Y858195D01*
Y861500D01*
X291765Y862265D01*
X291000Y862582D01*
D02*
G37*
G36*
X573170Y847029D02*
Y841870D01*
X578329D01*
X578272Y842307D01*
X577613Y843898D01*
X576564Y845264D01*
X575198Y846313D01*
X573607Y846972D01*
X573170Y847029D01*
D02*
G37*
G36*
X570630D02*
X570193Y846972D01*
X568602Y846313D01*
X567236Y845264D01*
X566187Y843898D01*
X565528Y842307D01*
X565471Y841870D01*
X570630D01*
Y847029D01*
D02*
G37*
G36*
X578329Y839330D02*
X573170D01*
Y834171D01*
X573607Y834228D01*
X575198Y834887D01*
X576564Y835936D01*
X577613Y837302D01*
X578272Y838893D01*
X578329Y839330D01*
D02*
G37*
G36*
X570630D02*
X565471D01*
X565528Y838893D01*
X566187Y837302D01*
X567236Y835936D01*
X568602Y834887D01*
X570193Y834228D01*
X570630Y834171D01*
Y839330D01*
D02*
G37*
G36*
X784200Y874622D02*
X782460Y874393D01*
X780839Y873722D01*
X779446Y872654D01*
X778378Y871261D01*
X777707Y869640D01*
X777478Y867900D01*
X777707Y866160D01*
X778378Y864539D01*
X779446Y863147D01*
X780839Y862078D01*
X781886Y861645D01*
Y846059D01*
X763011Y827184D01*
X761619Y827761D01*
X759700Y828013D01*
X757781Y827761D01*
X755993Y827020D01*
X754458Y825842D01*
X753280Y824307D01*
X752539Y822519D01*
X752287Y820600D01*
X752539Y818681D01*
X753280Y816893D01*
X754458Y815358D01*
X755993Y814180D01*
X757781Y813439D01*
X759700Y813187D01*
X761619Y813439D01*
X763407Y814180D01*
X764942Y815358D01*
X766120Y816893D01*
X766861Y818681D01*
X767113Y820600D01*
X766861Y822519D01*
X766284Y823911D01*
X785837Y843464D01*
X786338Y844214D01*
X786515Y845100D01*
Y861645D01*
X787561Y862078D01*
X788954Y863147D01*
X790022Y864539D01*
X790694Y866160D01*
X790922Y867900D01*
X790694Y869640D01*
X790022Y871261D01*
X788954Y872654D01*
X787561Y873722D01*
X785940Y874393D01*
X784200Y874622D01*
D02*
G37*
G36*
X811770Y829399D02*
Y821870D01*
X819299D01*
X819161Y822921D01*
X818265Y825083D01*
X816840Y826940D01*
X814983Y828365D01*
X812821Y829261D01*
X811770Y829399D01*
D02*
G37*
G36*
X809230Y829399D02*
X808179Y829261D01*
X806017Y828365D01*
X804160Y826940D01*
X802735Y825083D01*
X801839Y822921D01*
X801701Y821870D01*
X809230D01*
Y829399D01*
D02*
G37*
G36*
X581770Y820729D02*
Y815570D01*
X586929D01*
X586872Y816007D01*
X586213Y817598D01*
X585164Y818964D01*
X583798Y820013D01*
X582207Y820672D01*
X581770Y820729D01*
D02*
G37*
G36*
X579230D02*
X578793Y820672D01*
X577202Y820013D01*
X575836Y818964D01*
X574787Y817598D01*
X574128Y816007D01*
X574071Y815570D01*
X579230D01*
Y820729D01*
D02*
G37*
G36*
X785100Y828013D02*
X783181Y827761D01*
X781393Y827020D01*
X779858Y825842D01*
X778680Y824307D01*
X777939Y822519D01*
X777687Y820600D01*
X777939Y818681D01*
X778680Y816893D01*
X779858Y815358D01*
X781393Y814180D01*
X783181Y813439D01*
X785100Y813187D01*
X787019Y813439D01*
X788807Y814180D01*
X790342Y815358D01*
X791520Y816893D01*
X792261Y818681D01*
X792513Y820600D01*
X792261Y822519D01*
X791520Y824307D01*
X790342Y825842D01*
X788807Y827020D01*
X787019Y827761D01*
X785100Y828013D01*
D02*
G37*
G36*
X809230Y819330D02*
X801701D01*
X801839Y818279D01*
X802735Y816117D01*
X804160Y814260D01*
X806017Y812835D01*
X808179Y811939D01*
X809230Y811801D01*
Y819330D01*
D02*
G37*
G36*
X819299D02*
X811770D01*
Y811801D01*
X812821Y811939D01*
X814983Y812835D01*
X816840Y814260D01*
X818265Y816117D01*
X819161Y818279D01*
X819299Y819330D01*
D02*
G37*
G36*
X586929Y813030D02*
X581770D01*
Y807871D01*
X582207Y807928D01*
X583798Y808587D01*
X585164Y809636D01*
X586213Y811002D01*
X586872Y812593D01*
X586929Y813030D01*
D02*
G37*
G36*
X579230D02*
X574071D01*
X574128Y812593D01*
X574787Y811002D01*
X575836Y809636D01*
X577202Y808587D01*
X578793Y807928D01*
X579230Y807871D01*
Y813030D01*
D02*
G37*
G36*
X785100Y802613D02*
X783181Y802361D01*
X781393Y801620D01*
X779858Y800442D01*
X778680Y798907D01*
X777939Y797119D01*
X777687Y795200D01*
X777939Y793281D01*
X778680Y791493D01*
X779858Y789958D01*
X781393Y788780D01*
X783181Y788039D01*
X785100Y787787D01*
X787019Y788039D01*
X788807Y788780D01*
X790342Y789958D01*
X791520Y791493D01*
X792261Y793281D01*
X792513Y795200D01*
X792261Y797119D01*
X791520Y798907D01*
X790342Y800442D01*
X788807Y801620D01*
X787019Y802361D01*
X785100Y802613D01*
D02*
G37*
G36*
X759700D02*
X757781Y802361D01*
X755993Y801620D01*
X754458Y800442D01*
X753280Y798907D01*
X752539Y797119D01*
X752287Y795200D01*
X752539Y793281D01*
X753280Y791493D01*
X754458Y789958D01*
X755993Y788780D01*
X757781Y788039D01*
X759700Y787787D01*
X761619Y788039D01*
X763407Y788780D01*
X764942Y789958D01*
X766120Y791493D01*
X766861Y793281D01*
X767113Y795200D01*
X766861Y797119D01*
X766120Y798907D01*
X764942Y800442D01*
X763407Y801620D01*
X761619Y802361D01*
X759700Y802613D01*
D02*
G37*
G36*
X285600Y803986D02*
X282990Y803643D01*
X280557Y802635D01*
X278468Y801032D01*
X276865Y798943D01*
X275857Y796510D01*
X275514Y793900D01*
X275857Y791290D01*
X276865Y788857D01*
X278468Y786768D01*
X280557Y785165D01*
X282990Y784157D01*
X285600Y783814D01*
X288211Y784157D01*
X290643Y785165D01*
X292732Y786768D01*
X294335Y788857D01*
X295343Y791290D01*
X295686Y793900D01*
X295343Y796510D01*
X294335Y798943D01*
X292732Y801032D01*
X290643Y802635D01*
X288211Y803643D01*
X285600Y803986D01*
D02*
G37*
G36*
X475500Y830298D02*
X473549Y829910D01*
X471895Y828805D01*
X470790Y827151D01*
X470402Y825200D01*
X470790Y823249D01*
X471895Y821595D01*
X473186Y820733D01*
Y785800D01*
X473362Y784914D01*
X473863Y784163D01*
X484963Y773063D01*
X485714Y772562D01*
X486600Y772385D01*
X805000D01*
X805886Y772562D01*
X806637Y773063D01*
X812137Y778563D01*
X812638Y779314D01*
X812814Y780200D01*
Y788203D01*
X814207Y788780D01*
X815742Y789958D01*
X816920Y791493D01*
X817661Y793281D01*
X817913Y795200D01*
X817661Y797119D01*
X816920Y798907D01*
X815742Y800442D01*
X814207Y801620D01*
X812419Y802361D01*
X810500Y802613D01*
X808581Y802361D01*
X806793Y801620D01*
X805258Y800442D01*
X804080Y798907D01*
X803339Y797119D01*
X803087Y795200D01*
X803339Y793281D01*
X804080Y791493D01*
X805258Y789958D01*
X806793Y788780D01*
X808186Y788203D01*
Y781159D01*
X804041Y777014D01*
X487559D01*
X477814Y786759D01*
Y820733D01*
X479105Y821595D01*
X480210Y823249D01*
X480598Y825200D01*
X480210Y827151D01*
X479105Y828805D01*
X477451Y829910D01*
X475500Y830298D01*
D02*
G37*
G36*
X370775Y777972D02*
X368336Y777487D01*
X366269Y776106D01*
X364888Y774039D01*
X364403Y771600D01*
X364888Y769161D01*
X366269Y767094D01*
X368336Y765713D01*
X370775Y765228D01*
X373214Y765713D01*
X375281Y767094D01*
X376662Y769161D01*
X377147Y771600D01*
X376662Y774039D01*
X375281Y776106D01*
X373214Y777487D01*
X370775Y777972D01*
D02*
G37*
G36*
X342900D02*
X340461Y777487D01*
X338394Y776106D01*
X337013Y774039D01*
X336528Y771600D01*
X337013Y769161D01*
X338394Y767094D01*
X340461Y765713D01*
X342900Y765228D01*
X345339Y765713D01*
X347406Y767094D01*
X348787Y769161D01*
X349272Y771600D01*
X348787Y774039D01*
X347406Y776106D01*
X345339Y777487D01*
X342900Y777972D01*
D02*
G37*
G36*
X399300Y777908D02*
X397538Y777676D01*
X395896Y776996D01*
X394486Y775914D01*
X393404Y774504D01*
X392724Y772862D01*
X392492Y771100D01*
X392724Y769338D01*
X393404Y767696D01*
X394486Y766286D01*
X395896Y765204D01*
X397538Y764524D01*
X399300Y764292D01*
X401062Y764524D01*
X402704Y765204D01*
X404114Y766286D01*
X405196Y767696D01*
X405876Y769338D01*
X406108Y771100D01*
X405876Y772862D01*
X405196Y774504D01*
X404114Y775914D01*
X402704Y776996D01*
X401062Y777676D01*
X399300Y777908D01*
D02*
G37*
G36*
X625070Y759129D02*
Y753970D01*
X630229D01*
X630172Y754407D01*
X629513Y755998D01*
X628464Y757364D01*
X627098Y758413D01*
X625507Y759072D01*
X625070Y759129D01*
D02*
G37*
G36*
X622530D02*
X622093Y759072D01*
X620502Y758413D01*
X619136Y757364D01*
X618087Y755998D01*
X617428Y754407D01*
X617371Y753970D01*
X622530D01*
Y759129D01*
D02*
G37*
G36*
X518570Y761400D02*
Y753870D01*
X526100D01*
X525961Y754921D01*
X525065Y757083D01*
X523640Y758940D01*
X521783Y760365D01*
X519621Y761261D01*
X518570Y761400D01*
D02*
G37*
G36*
X516030D02*
X514979Y761261D01*
X512817Y760365D01*
X510960Y758940D01*
X509535Y757083D01*
X508639Y754921D01*
X508501Y753870D01*
X516030D01*
Y761400D01*
D02*
G37*
G36*
X630229Y751430D02*
X625070D01*
Y746271D01*
X625507Y746328D01*
X627098Y746987D01*
X628464Y748036D01*
X629513Y749402D01*
X630172Y750993D01*
X630229Y751430D01*
D02*
G37*
G36*
X622530D02*
X617371D01*
X617428Y750993D01*
X618087Y749402D01*
X619136Y748036D01*
X620502Y746987D01*
X622093Y746328D01*
X622530Y746271D01*
Y751430D01*
D02*
G37*
G36*
X491900Y760013D02*
X489981Y759761D01*
X488193Y759020D01*
X486658Y757842D01*
X485480Y756307D01*
X484739Y754519D01*
X484487Y752600D01*
X484739Y750681D01*
X485480Y748893D01*
X486658Y747358D01*
X488193Y746180D01*
X489981Y745439D01*
X491900Y745187D01*
X493819Y745439D01*
X495607Y746180D01*
X497142Y747358D01*
X498320Y748893D01*
X499061Y750681D01*
X499313Y752600D01*
X499061Y754519D01*
X498320Y756307D01*
X497142Y757842D01*
X495607Y759020D01*
X493819Y759761D01*
X491900Y760013D01*
D02*
G37*
G36*
X526100Y751330D02*
X518570D01*
Y743801D01*
X519621Y743939D01*
X521783Y744835D01*
X523640Y746260D01*
X525065Y748117D01*
X525961Y750279D01*
X526100Y751330D01*
D02*
G37*
G36*
X516030D02*
X508501D01*
X508639Y750279D01*
X509535Y748117D01*
X510960Y746260D01*
X512817Y744835D01*
X514979Y743939D01*
X516030Y743801D01*
Y751330D01*
D02*
G37*
G36*
X517300Y734613D02*
X515381Y734361D01*
X513593Y733620D01*
X512058Y732442D01*
X510880Y730907D01*
X510139Y729119D01*
X509887Y727200D01*
X510139Y725281D01*
X510880Y723493D01*
X512058Y721958D01*
X513593Y720780D01*
X515381Y720039D01*
X517300Y719787D01*
X519219Y720039D01*
X521007Y720780D01*
X522542Y721958D01*
X523720Y723493D01*
X524461Y725281D01*
X524713Y727200D01*
X524461Y729119D01*
X523720Y730907D01*
X522542Y732442D01*
X521007Y733620D01*
X519219Y734361D01*
X517300Y734613D01*
D02*
G37*
G36*
X491900D02*
X489981Y734361D01*
X488193Y733620D01*
X486658Y732442D01*
X485480Y730907D01*
X484739Y729119D01*
X484487Y727200D01*
X484739Y725281D01*
X485480Y723493D01*
X486658Y721958D01*
X488193Y720780D01*
X489981Y720039D01*
X491900Y719787D01*
X493819Y720039D01*
X495607Y720780D01*
X497142Y721958D01*
X498320Y723493D01*
X499061Y725281D01*
X499313Y727200D01*
X499061Y729119D01*
X498320Y730907D01*
X497142Y732442D01*
X495607Y733620D01*
X493819Y734361D01*
X491900Y734613D01*
D02*
G37*
G36*
X466500D02*
X464581Y734361D01*
X462793Y733620D01*
X461258Y732442D01*
X460080Y730907D01*
X459339Y729119D01*
X459087Y727200D01*
X459339Y725281D01*
X460080Y723493D01*
X461258Y721958D01*
X462793Y720780D01*
X464581Y720039D01*
X466500Y719787D01*
X468419Y720039D01*
X470207Y720780D01*
X471742Y721958D01*
X472920Y723493D01*
X473661Y725281D01*
X473913Y727200D01*
X473661Y729119D01*
X472920Y730907D01*
X471742Y732442D01*
X470207Y733620D01*
X468419Y734361D01*
X466500Y734613D01*
D02*
G37*
G36*
X295600Y701900D02*
X275600D01*
Y681900D01*
X295600D01*
Y701900D01*
D02*
G37*
G36*
X840570Y680096D02*
Y671870D01*
X848795D01*
X848633Y673101D01*
X847668Y675431D01*
X846133Y677433D01*
X844131Y678968D01*
X841801Y679933D01*
X840570Y680096D01*
D02*
G37*
G36*
X838030D02*
X836799Y679933D01*
X834469Y678968D01*
X832467Y677433D01*
X830932Y675431D01*
X829967Y673101D01*
X829805Y671870D01*
X838030D01*
Y680096D01*
D02*
G37*
G36*
X344170Y671290D02*
Y664870D01*
X350590D01*
X350490Y665634D01*
X349705Y667529D01*
X348456Y669156D01*
X346829Y670405D01*
X344934Y671189D01*
X344170Y671290D01*
D02*
G37*
G36*
X341630D02*
X340866Y671189D01*
X338971Y670405D01*
X337344Y669156D01*
X336096Y667529D01*
X335311Y665634D01*
X335210Y664870D01*
X341630D01*
Y671290D01*
D02*
G37*
G36*
X1063180Y679750D02*
X1047100D01*
Y663670D01*
X1063180D01*
Y679750D01*
D02*
G37*
G36*
X1029740Y679819D02*
X1027641Y679543D01*
X1025685Y678733D01*
X1024006Y677444D01*
X1022717Y675765D01*
X1021907Y673809D01*
X1021631Y671710D01*
X1021907Y669611D01*
X1022717Y667655D01*
X1024006Y665976D01*
X1025685Y664687D01*
X1027641Y663877D01*
X1029740Y663601D01*
X1031839Y663877D01*
X1033795Y664687D01*
X1035474Y665976D01*
X1036763Y667655D01*
X1037573Y669611D01*
X1037849Y671710D01*
X1037573Y673809D01*
X1036763Y675765D01*
X1035474Y677444D01*
X1033795Y678733D01*
X1031839Y679543D01*
X1029740Y679819D01*
D02*
G37*
G36*
X1004340D02*
X1002241Y679543D01*
X1000285Y678733D01*
X998606Y677444D01*
X997317Y675765D01*
X996507Y673809D01*
X996231Y671710D01*
X996507Y669611D01*
X997317Y667655D01*
X998606Y665976D01*
X1000285Y664687D01*
X1002241Y663877D01*
X1004340Y663601D01*
X1006439Y663877D01*
X1008395Y664687D01*
X1010074Y665976D01*
X1011363Y667655D01*
X1012173Y669611D01*
X1012449Y671710D01*
X1012173Y673809D01*
X1011363Y675765D01*
X1010074Y677444D01*
X1008395Y678733D01*
X1006439Y679543D01*
X1004340Y679819D01*
D02*
G37*
G36*
X978940D02*
X976841Y679543D01*
X974885Y678733D01*
X973206Y677444D01*
X971917Y675765D01*
X971107Y673809D01*
X970831Y671710D01*
X971107Y669611D01*
X971917Y667655D01*
X973206Y665976D01*
X974885Y664687D01*
X976841Y663877D01*
X978940Y663601D01*
X981039Y663877D01*
X982995Y664687D01*
X984674Y665976D01*
X985963Y667655D01*
X986773Y669611D01*
X987049Y671710D01*
X986773Y673809D01*
X985963Y675765D01*
X984674Y677444D01*
X982995Y678733D01*
X981039Y679543D01*
X978940Y679819D01*
D02*
G37*
G36*
X953540D02*
X951441Y679543D01*
X949485Y678733D01*
X947806Y677444D01*
X946517Y675765D01*
X945707Y673809D01*
X945431Y671710D01*
X945707Y669611D01*
X946517Y667655D01*
X947806Y665976D01*
X949485Y664687D01*
X951441Y663877D01*
X953540Y663601D01*
X955639Y663877D01*
X957595Y664687D01*
X959274Y665976D01*
X960563Y667655D01*
X961373Y669611D01*
X961649Y671710D01*
X961373Y673809D01*
X960563Y675765D01*
X959274Y677444D01*
X957595Y678733D01*
X955639Y679543D01*
X953540Y679819D01*
D02*
G37*
G36*
X928140D02*
X926041Y679543D01*
X924085Y678733D01*
X922406Y677444D01*
X921117Y675765D01*
X920307Y673809D01*
X920031Y671710D01*
X920307Y669611D01*
X921117Y667655D01*
X922406Y665976D01*
X924085Y664687D01*
X926041Y663877D01*
X928140Y663601D01*
X930239Y663877D01*
X932195Y664687D01*
X933874Y665976D01*
X935163Y667655D01*
X935973Y669611D01*
X936249Y671710D01*
X935973Y673809D01*
X935163Y675765D01*
X933874Y677444D01*
X932195Y678733D01*
X930239Y679543D01*
X928140Y679819D01*
D02*
G37*
G36*
X898140Y678640D02*
X882060D01*
Y662560D01*
X898140D01*
Y678640D01*
D02*
G37*
G36*
X864700Y678709D02*
X862601Y678433D01*
X860645Y677623D01*
X858966Y676334D01*
X857677Y674655D01*
X856867Y672699D01*
X856591Y670600D01*
X856867Y668501D01*
X857677Y666545D01*
X858966Y664866D01*
X860645Y663577D01*
X862601Y662767D01*
X864700Y662491D01*
X866799Y662767D01*
X868755Y663577D01*
X870434Y664866D01*
X871723Y666545D01*
X872533Y668501D01*
X872809Y670600D01*
X872533Y672699D01*
X871723Y674655D01*
X870434Y676334D01*
X868755Y677623D01*
X866799Y678433D01*
X864700Y678709D01*
D02*
G37*
G36*
X813900D02*
X811801Y678433D01*
X809845Y677623D01*
X808166Y676334D01*
X806877Y674655D01*
X806067Y672699D01*
X805791Y670600D01*
X806067Y668501D01*
X806877Y666545D01*
X808166Y664866D01*
X809845Y663577D01*
X811801Y662767D01*
X813900Y662491D01*
X815999Y662767D01*
X817955Y663577D01*
X819634Y664866D01*
X820923Y666545D01*
X821733Y668501D01*
X822009Y670600D01*
X821733Y672699D01*
X820923Y674655D01*
X819634Y676334D01*
X817955Y677623D01*
X815999Y678433D01*
X813900Y678709D01*
D02*
G37*
G36*
X788500D02*
X786401Y678433D01*
X784445Y677623D01*
X782766Y676334D01*
X781477Y674655D01*
X780667Y672699D01*
X780391Y670600D01*
X780667Y668501D01*
X781477Y666545D01*
X782766Y664866D01*
X784445Y663577D01*
X786401Y662767D01*
X788500Y662491D01*
X790599Y662767D01*
X792555Y663577D01*
X794234Y664866D01*
X795523Y666545D01*
X796333Y668501D01*
X796609Y670600D01*
X796333Y672699D01*
X795523Y674655D01*
X794234Y676334D01*
X792555Y677623D01*
X790599Y678433D01*
X788500Y678709D01*
D02*
G37*
G36*
X763100D02*
X761001Y678433D01*
X759045Y677623D01*
X757366Y676334D01*
X756077Y674655D01*
X755267Y672699D01*
X754991Y670600D01*
X755267Y668501D01*
X756077Y666545D01*
X757366Y664866D01*
X759045Y663577D01*
X761001Y662767D01*
X763100Y662491D01*
X765199Y662767D01*
X767155Y663577D01*
X768834Y664866D01*
X770123Y666545D01*
X770933Y668501D01*
X771209Y670600D01*
X770933Y672699D01*
X770123Y674655D01*
X768834Y676334D01*
X767155Y677623D01*
X765199Y678433D01*
X763100Y678709D01*
D02*
G37*
G36*
X737700D02*
X735601Y678433D01*
X733645Y677623D01*
X731966Y676334D01*
X730677Y674655D01*
X729867Y672699D01*
X729591Y670600D01*
X729867Y668501D01*
X730677Y666545D01*
X731966Y664866D01*
X733645Y663577D01*
X735601Y662767D01*
X737700Y662491D01*
X739799Y662767D01*
X741755Y663577D01*
X743434Y664866D01*
X744723Y666545D01*
X745533Y668501D01*
X745809Y670600D01*
X745533Y672699D01*
X744723Y674655D01*
X743434Y676334D01*
X741755Y677623D01*
X739799Y678433D01*
X737700Y678709D01*
D02*
G37*
G36*
X712300D02*
X710201Y678433D01*
X708245Y677623D01*
X706566Y676334D01*
X705277Y674655D01*
X704467Y672699D01*
X704191Y670600D01*
X704467Y668501D01*
X705277Y666545D01*
X706566Y664866D01*
X708245Y663577D01*
X710201Y662767D01*
X712300Y662491D01*
X714399Y662767D01*
X716355Y663577D01*
X718034Y664866D01*
X719323Y666545D01*
X720133Y668501D01*
X720409Y670600D01*
X720133Y672699D01*
X719323Y674655D01*
X718034Y676334D01*
X716355Y677623D01*
X714399Y678433D01*
X712300Y678709D01*
D02*
G37*
G36*
X686900D02*
X684801Y678433D01*
X682845Y677623D01*
X681166Y676334D01*
X679877Y674655D01*
X679067Y672699D01*
X678791Y670600D01*
X679067Y668501D01*
X679877Y666545D01*
X681166Y664866D01*
X682845Y663577D01*
X684801Y662767D01*
X686900Y662491D01*
X688999Y662767D01*
X690955Y663577D01*
X692634Y664866D01*
X693923Y666545D01*
X694733Y668501D01*
X695009Y670600D01*
X694733Y672699D01*
X693923Y674655D01*
X692634Y676334D01*
X690955Y677623D01*
X688999Y678433D01*
X686900Y678709D01*
D02*
G37*
G36*
X661500D02*
X659401Y678433D01*
X657445Y677623D01*
X655766Y676334D01*
X654477Y674655D01*
X653667Y672699D01*
X653391Y670600D01*
X653667Y668501D01*
X654477Y666545D01*
X655766Y664866D01*
X657445Y663577D01*
X659401Y662767D01*
X661500Y662491D01*
X663599Y662767D01*
X665555Y663577D01*
X667234Y664866D01*
X668523Y666545D01*
X669333Y668501D01*
X669609Y670600D01*
X669333Y672699D01*
X668523Y674655D01*
X667234Y676334D01*
X665555Y677623D01*
X663599Y678433D01*
X661500Y678709D01*
D02*
G37*
G36*
X848795Y669330D02*
X840570D01*
Y661105D01*
X841801Y661267D01*
X844131Y662232D01*
X846133Y663767D01*
X847668Y665769D01*
X848633Y668099D01*
X848795Y669330D01*
D02*
G37*
G36*
X838030D02*
X829805D01*
X829967Y668099D01*
X830932Y665769D01*
X832467Y663767D01*
X834469Y662232D01*
X836799Y661267D01*
X838030Y661105D01*
Y669330D01*
D02*
G37*
G36*
X370775Y669972D02*
X368336Y669487D01*
X366269Y668106D01*
X364888Y666039D01*
X364403Y663600D01*
X364888Y661161D01*
X366269Y659094D01*
X368336Y657713D01*
X370775Y657227D01*
X373214Y657713D01*
X375281Y659094D01*
X376662Y661161D01*
X377147Y663600D01*
X376662Y666039D01*
X375281Y668106D01*
X373214Y669487D01*
X370775Y669972D01*
D02*
G37*
G36*
X350590Y662330D02*
X344170D01*
Y655910D01*
X344934Y656011D01*
X346829Y656796D01*
X348456Y658044D01*
X349705Y659671D01*
X350490Y661566D01*
X350590Y662330D01*
D02*
G37*
G36*
X341630D02*
X335210D01*
X335311Y661566D01*
X336096Y659671D01*
X337344Y658044D01*
X338971Y656796D01*
X340866Y656011D01*
X341630Y655910D01*
Y662330D01*
D02*
G37*
%LPD*%
G36*
X286000Y941500D02*
X286994D01*
X288832Y940739D01*
X290239Y939332D01*
X291000Y937495D01*
Y936500D01*
Y927500D01*
X272000D01*
Y936500D01*
Y937495D01*
X272761Y939332D01*
X274168Y940739D01*
X276005Y941500D01*
X277000D01*
Y941500D01*
X286000Y941500D01*
D02*
G37*
G36*
X291000Y852500D02*
Y851505D01*
X290239Y849668D01*
X288832Y848261D01*
X286994Y847500D01*
X286000D01*
Y847500D01*
X277000Y847500D01*
X276005D01*
X274168Y848261D01*
X272761Y849668D01*
X272000Y851505D01*
Y852500D01*
Y861500D01*
X291000D01*
Y852500D01*
D02*
G37*
D12*
X373800Y1020900D02*
X374400Y1020300D01*
X557200Y996500D02*
X562300Y991400D01*
X488300Y996500D02*
X557200D01*
X488300Y1005389D02*
Y1015600D01*
X483700Y1020200D02*
X488300Y1015600D01*
X458300Y1020200D02*
X483700D01*
X488300Y1005389D02*
X488300Y1005389D01*
X488300Y996500D02*
Y1005389D01*
X313900Y1020900D02*
X373800D01*
X313800Y1021000D02*
X313900Y1020900D01*
X486600Y774700D02*
X805000D01*
X475500Y785800D02*
X486600Y774700D01*
X475500Y785800D02*
Y825200D01*
X810500Y780200D02*
Y795200D01*
X805000Y774700D02*
X810500Y780200D01*
X466500Y839700D02*
X469500Y842700D01*
X466500Y752600D02*
Y839700D01*
X411000Y752600D02*
X465600D01*
X469500Y842700D02*
X545000D01*
X563200Y860900D01*
Y876600D01*
X455500Y1140900D02*
Y1213800D01*
X449600Y1219700D02*
X455500Y1213800D01*
X444500Y1219700D02*
X449600D01*
X450500Y1135900D02*
X455500Y1140900D01*
X438100Y1135900D02*
X450500D01*
X562300Y877500D02*
Y991400D01*
Y877500D02*
X563200Y876600D01*
X402300Y667100D02*
Y743900D01*
X399300Y664100D02*
X402300Y667100D01*
Y743900D02*
X411000Y752600D01*
X759700Y820600D02*
X784200Y845100D01*
Y867900D01*
X835000Y988612D02*
X844288Y997900D01*
X835000Y969500D02*
Y988612D01*
X844288Y997900D02*
X943600D01*
X970850Y1025150D01*
X1027400D01*
D41*
X281500Y854500D02*
D03*
Y934500D02*
D03*
D50*
X312750Y916750D02*
D03*
Y872250D02*
D03*
D51*
X281500Y935375D02*
D03*
Y853625D02*
D03*
D67*
X519300Y1143000D02*
D03*
X386700Y862000D02*
D03*
X454200D02*
D03*
D68*
X519300Y1117600D02*
D03*
D69*
X405130Y1186550D02*
D03*
X1027400Y1025150D02*
D03*
D70*
X298130Y1186550D02*
D03*
X399300Y771100D02*
D03*
X920400Y1025150D02*
D03*
D71*
X487800Y940100D02*
D03*
X379800D02*
D03*
X487800Y910500D02*
D03*
X379800D02*
D03*
X342900Y663600D02*
D03*
Y771600D02*
D03*
X370775D02*
D03*
Y663600D02*
D03*
X783000Y1025800D02*
D03*
X891000D02*
D03*
X783700Y1059700D02*
D03*
X891700D02*
D03*
X919900D02*
D03*
X1027900D02*
D03*
X441100Y1185900D02*
D03*
X549100D02*
D03*
D72*
X285600Y691900D02*
D03*
D73*
Y793900D02*
D03*
D74*
X399300Y664100D02*
D03*
D75*
X412100Y862000D02*
D03*
X479600D02*
D03*
D76*
X602600Y941600D02*
D03*
X553800D02*
D03*
X731300Y1041200D02*
D03*
X682500D02*
D03*
D77*
X987400Y969500D02*
D03*
D78*
X962000D02*
D03*
X936600D02*
D03*
X911200D02*
D03*
X885800D02*
D03*
X860400D02*
D03*
X835000D02*
D03*
X809600D02*
D03*
X784200D02*
D03*
X758800D02*
D03*
X733400D02*
D03*
X708000D02*
D03*
X682600D02*
D03*
X657200D02*
D03*
Y867900D02*
D03*
X682600D02*
D03*
X708000D02*
D03*
X733400D02*
D03*
X758800D02*
D03*
X784200D02*
D03*
X809600D02*
D03*
X835000D02*
D03*
X860400D02*
D03*
X885800D02*
D03*
X911200D02*
D03*
X936600D02*
D03*
X962000D02*
D03*
X987400D02*
D03*
D79*
X661500Y670600D02*
D03*
X686900D02*
D03*
X712300D02*
D03*
X737700D02*
D03*
X763100D02*
D03*
X788500D02*
D03*
X813900D02*
D03*
X839300D02*
D03*
X864700D02*
D03*
X928140Y671710D02*
D03*
X953540D02*
D03*
X978940D02*
D03*
X1004340D02*
D03*
X1029740D02*
D03*
D80*
X890100Y670600D02*
D03*
X1055140Y671710D02*
D03*
D81*
X882640Y1181720D02*
D03*
X908040D02*
D03*
X933440D02*
D03*
X958840D02*
D03*
X984240D02*
D03*
X1009640D02*
D03*
X1035040D02*
D03*
X834805D02*
D03*
X809405D02*
D03*
X784005D02*
D03*
X758605D02*
D03*
X733205D02*
D03*
X707805D02*
D03*
X682405D02*
D03*
D82*
X1060440D02*
D03*
X657005D02*
D03*
D83*
X312420Y1225550D02*
D03*
X402590Y1223010D02*
D03*
D84*
X759700Y795200D02*
D03*
Y820600D02*
D03*
X785100Y795200D02*
D03*
Y820600D02*
D03*
X810500Y795200D02*
D03*
Y820600D02*
D03*
X466500Y727200D02*
D03*
Y752600D02*
D03*
X491900Y727200D02*
D03*
Y752600D02*
D03*
X517300Y727200D02*
D03*
Y752600D02*
D03*
D85*
X488300Y996500D02*
D03*
X518400Y1024400D02*
D03*
X458300Y1020200D02*
D03*
X374400Y1020800D02*
D03*
X475500Y825200D02*
D03*
X438100Y1135900D02*
D03*
X444500Y1219700D02*
D03*
X563200Y876600D02*
D03*
X313800Y1021000D02*
D03*
X766800Y1003600D02*
D03*
X712000Y1009700D02*
D03*
X623800Y752700D02*
D03*
X580500Y814300D02*
D03*
X571900Y840600D02*
D03*
X610300Y899600D02*
D03*
X554900Y899200D02*
D03*
X349200Y959500D02*
D03*
X301500Y966700D02*
D03*
X408100Y1077200D02*
D03*
X388600Y1160800D02*
D03*
X296750Y1148750D02*
D03*
D86*
X299000Y1037300D02*
D03*
X408050Y977450D02*
D03*
M02*
