G04*
G04 #@! TF.GenerationSoftware,Altium Limited,Altium Designer,24.10.1 (45)*
G04*
G04 Layer_Color=16711935*
%FSLAX44Y44*%
%MOMM*%
G71*
G04*
G04 #@! TF.SameCoordinates,5747CF6B-E7E8-4C91-AA59-05DF990D4A04*
G04*
G04*
G04 #@! TF.FilePolarity,Positive*
G04*
G01*
G75*
%ADD11C,0.2000*%
%ADD88C,0.0500*%
D11*
X601162Y894938D02*
Y903662D01*
X583438D02*
X601162D01*
X583438Y894938D02*
Y903662D01*
Y894938D02*
X601162D01*
X580262Y895038D02*
Y903762D01*
X562538D02*
X580262D01*
X562538Y895038D02*
Y903762D01*
Y895038D02*
X580262D01*
X339719Y972769D02*
X365281D01*
Y1015831D01*
X339719D02*
X365281D01*
X339719Y972769D02*
Y1015831D01*
X314369Y972769D02*
X339931D01*
Y1015831D01*
X314369D02*
X339931D01*
X314369Y972769D02*
Y1015831D01*
X289019D02*
X314581D01*
X289019Y972769D02*
Y1015831D01*
Y972769D02*
X314581D01*
Y1015831D01*
X360418Y929662D02*
Y953538D01*
X319270Y929662D02*
Y953538D01*
Y929662D02*
X360418D01*
X319270Y953538D02*
X360418D01*
X320500Y843500D02*
Y945500D01*
X252500Y843500D02*
X320500D01*
X252500D02*
Y945500D01*
X320500D01*
X481019Y797369D02*
X506581D01*
Y840431D01*
X481019D02*
X506581D01*
X481019Y797369D02*
Y840431D01*
X759062Y999538D02*
Y1008262D01*
X741338D02*
X759062D01*
X741338Y999538D02*
Y1008262D01*
Y999538D02*
X759062D01*
X733762Y998338D02*
Y1007062D01*
X716038D02*
X733762D01*
X716038Y998338D02*
Y1007062D01*
Y998338D02*
X733762D01*
X523319Y1033069D02*
Y1076131D01*
X548881D01*
Y1033069D02*
Y1076131D01*
X523319Y1033069D02*
X548881D01*
X493719Y1033377D02*
Y1076439D01*
X519281D01*
Y1033377D02*
Y1076439D01*
X493719Y1033377D02*
X519281D01*
X637781Y765969D02*
Y809031D01*
X612219Y765969D02*
X637781D01*
X612219D02*
Y809031D01*
X637781D01*
D88*
X390339Y972539D02*
Y1001661D01*
X404461D01*
Y972539D02*
Y1001661D01*
X390339Y972539D02*
X404461D01*
X387761D02*
Y1001661D01*
X373639Y972539D02*
X387761D01*
X373639D02*
Y1001661D01*
X387761D01*
M02*
